<?xml version="1.0" encoding="UTF-8"?><svg xmlns="http://www.w3.org/2000/svg" viewBox="0 0 103.04 86.96"><defs><style>.d{fill:#092818;stroke:#346a40;stroke-miterlimit:10;stroke-width:.64px;}.e{fill:#9e2f21;}</style></defs><g id="a"/><g id="b"><g id="c"><g><path class="d" d="M23.74,60.34c-2.58,.13-3.62,1.51-3.92,3.86-.31,2.44-.98,4.83-1.38,7.27-.28,1.68-1.04,2.97-2.23,4.2-1.93,2-3.64,4.21-5.55,6.45-.75-.5-1.47-.07-1.76,1.14-.21,.88-.3,1.79-.5,2.97-.72-.87-1.15-1.7-1.83-2.14-1.22-.79-1.35,.6-1.84,1.27-.38-1.54,.28-2.79,1.55-3.91,2.7-2.37,5.3-4.85,7.91-7.33,.33-.31,.53-.81,.65-1.26,1.23-4.62,2.4-9.25,3.65-13.86,.43-1.6,2-1.96,3.27-2.54,.85-.39,1.15-.8,1.06-1.76-.57-5.78-.58-11.53,.88-17.21,.07-.27,.06-.55,.1-.96-2.86,.31-5.26,1.13-7.07,3.39-.8,1-1.9,1.78-2.9,2.61-.9,.76-1.91,1.41-2.77,2.22-.8,.74-1.6,1.12-2.67,.75-.14-.05-.29-.06-.44-.08-2.42-.33-3.03,.15-3.27,2.93l-1.23-2.37c-.44,.1-.96,.21-1.48,.32-.45,.1-.89,.21-1.34,.32l-.24-.49c1.66-.99,3.26-2.11,5-2.94,1.86-.89,3.88-1.45,5.78-2.26,.67-.29,1.29-.83,1.79-1.38,.69-.76,1.24-1.66,1.88-2.48,2.36-3.03,5.34-4.95,9.3-4.94,1.14,0,1.57-.53,2.02-1.47,1.01-2.08,2.1-4.14,3.33-6.09,.95-1.5,2.31-2.6,4.78-2.23-.18-1.07-.08-2.1-.51-2.8-1.98-3.21-3.72-6.49-4.62-10.2-.16-.65-1.08-1.25-1.79-1.58-1.24-.59-2.61-.9-3.87-1.45-.47-.21-1.18-.81-1.13-1.13,.26-1.67-.91-1.99-2.02-2.43-.35-.14-.71-.27-1.05-.6h2.32V.62l.21-.05c.14,.34,.32,.66,.41,1.01,.29,1.11,.88,1.36,1.99,1.01,.53-.17,1.36-.05,1.81,.27,1.81,1.28,3.49,2.73,5.27,4.04,.97,.72,1.53,1.53,1.73,2.77,.34,2.13,.86,4.24,1.4,6.33,.18,.68,.67,1.27,1.1,2.04,.88-1.06,1.58-2,2.38-2.83,1.65-1.69,3.55-2.9,5.92-3.46,.82-.19,1.45-1.16,2.39-1.96-1.7-1.18-3.25-2.2-4.74-3.3-.46-.34-.77-.9-1.15-1.36,.44-.26,.9-.75,1.3-.71,.56,.05,1.34,.38,1.58,.82,1.25,2.38,3.54,3.75,6.13,3.68,1.97-.06,3.95,.02,5.92,.14,1.6,.09,4.56-1.87,5.58-3.68,.25-.44,.91-.89,1.38-.89,.52,0,1.04,.52,1.57,.81-.37,.41-.67,.92-1.11,1.22-1.59,1.07-3.22,2.07-4.9,3.14,1.01,1.36,1.97,2.27,3.62,2.6,2.58,.52,4.34,2.44,5.91,4.45,.33,.43,.64,.87,1.24,1.68,1.01-1.49,2.33-2.71,2.76-4.2,1.12-3.92,3.26-6.84,6.84-8.79,.79-.43,1.28-1.37,2.03-1.92,.37-.27,1.17-.42,1.48-.2,1.17,.81,1.69,.39,2.02-.78,.14-.51,.33-1.02,.67-1.5,0,.62-.23,1.41,.06,1.81,.33,.45,1.15,.54,1.91,.85-.8,.22-1.53,.26-2.06,.61-.42,.28-.88,.97-.82,1.42,.12,.94-.34,1.26-1.03,1.53-1.2,.46-2.41,.88-3.6,1.36-1.13,.46-1.89,1.19-2.36,2.44-1.09,2.91-2.97,5.31-5.21,7.47-1.91,1.85-1.86,1.9-1.16,3.89,2.59-.23,3.98,1.5,5.12,3.48,.98,1.71,1.76,3.53,2.69,5.27,.22,.4,.72,.93,1.09,.94,5.31,.03,8.36,3.4,11.14,7.29,.5,.7,1.31,1.31,2.11,1.63,3.39,1.35,6.93,2.35,9.8,4.75,.22,.18,.41,.39,.53,.87l-2.82-.62-1.12,2.31c-.48-2.94-1.01-3.33-3.8-2.77-1.1,.22-1.85-.08-2.68-.78-1.2-1.01-2.54-1.85-3.81-2.78-.43-.32-.92-.63-1.19-1.07-1.58-2.61-3.94-3.93-7.01-4.28-.02,.26-.12,.55-.06,.79,1.45,5.73,1.43,11.54,.83,17.37-.1,1,.1,1.56,1.07,1.9,1.75,.61,2.78,1.8,3.21,3.7,.96,4.22,2.09,8.41,3.2,12.59,.13,.49,.45,.99,.82,1.34,2.58,2.43,5.19,4.84,7.82,7.21,1.13,1.02,1.82,2.17,1.66,3.84-.75-.44-.75-2.14-2.03-1.29-.68,.45-1.12,1.28-1.84,2.13-.21-1.2-.31-2.16-.55-3.08-.31-1.17-1.08-1.43-1.78-.98-1.63-2-3-4.08-4.77-5.73-1.89-1.77-2.85-3.78-3.22-6.26-.34-2.29-.94-4.55-1.29-6.84-.28-1.82-1.3-2.64-3.14-2.82-4.1,14.49-13.08,23-28.78,22.89-6.72-.05-12.64-2.43-17.72-6.83-5.04-4.37-8.16-9.94-9.88-16.21Zm28.47-22.18c2.33-.36,4.7-.53,6.98-1.11,2.97-.76,3.66-2.77,2.1-5.41-.3-.5-.67-.98-1.07-1.4-4.1-4.35-10.88-4.79-16.04-1.05-3.25,2.35-3.03,5.42,.54,7.28,2.34,1.22,4.87,1.5,7.49,1.7Zm12.04,6.36c-3.36,.28-5.87,1.98-6.83,4.84-1.18,3.52,.39,6.63,3.76,6.86,3.41,.23,6.57-.85,8.92-3.47,1.98-2.2,1.46-5.23-1.17-6.65-1.43-.77-3.12-1.07-4.69-1.58Zm-17.91,6.47c0-3.06-1.83-5.55-4.86-5.94-1.74-.23-3.68-.07-5.33,.51-3.77,1.32-4.56,5.55-1.49,8.09,1.46,1.21,3.37,2.05,5.22,2.55,3.61,.98,6.46-1.45,6.46-5.2Zm17.7,24.5c.8-.22,1.65-.31,2.38-.67,2.38-1.17,4.59-5.32,4.33-7.93-.13-1.35-.78-2.37-2.08-2.78-4.35-1.36-9.13,.78-9.56,6.04-.25,3.04,1.85,5.22,4.93,5.35Zm-28.08-11.75c-3.33,0-4.87,1.44-4.45,4.35,.38,2.69,1.7,4.96,3.93,6.52,1.61,1.12,3.47,1.04,5.21,.2,1.6-.78,2.31-2.22,2.4-3.96,.2-4.14-2.76-7.11-7.08-7.11Zm-10.47-25.99c0,2-.01,3.55,1.59,4.21,1.7,.71,3.08-.14,4.2-1.38,2.25-2.5,3.25-5.49,3.14-8.83-.04-1.25-.35-2.5-1.73-3.02-1.37-.52-2.52,0-3.51,.93-2.47,2.33-3.43,5.33-3.69,8.08Zm44.2-5.26l-.36,.11c.62,1.9,1.04,3.9,1.91,5.67,.62,1.27,1.68,2.47,2.84,3.3,2.1,1.51,4.2,.48,4.47-2.08,.12-1.11-.01-2.28-.24-3.37-.53-2.56-1.57-4.89-3.62-6.63-.99-.84-2.14-1.28-3.42-.7-1.19,.54-1.47,1.64-1.57,2.82-.03,.29,0,.59,0,.89Z"/><path class="e" d="M52.2,38.16c-2.62-.19-5.15-.48-7.49-1.7-3.57-1.86-3.79-4.92-.54-7.28,5.16-3.74,11.94-3.3,16.04,1.05,.4,.43,.78,.9,1.07,1.4,1.56,2.64,.86,4.65-2.1,5.41-2.27,.58-4.65,.75-6.98,1.11Z"/><path class="e" d="M64.24,44.52c1.57,.51,3.26,.8,4.69,1.58,2.63,1.42,3.15,4.45,1.17,6.65-2.35,2.61-5.51,3.7-8.92,3.47-3.37-.23-4.94-3.34-3.76-6.86,.96-2.86,3.47-4.55,6.83-4.84Z"/><path class="e" d="M46.33,50.99c0,3.75-2.85,6.18-6.46,5.2-1.85-.5-3.76-1.34-5.22-2.55-3.07-2.54-2.28-6.78,1.49-8.09,1.65-.57,3.6-.73,5.33-.51,3.03,.4,4.86,2.88,4.86,5.94Z"/><path class="e" d="M64.03,75.49c-3.07-.13-5.18-2.3-4.93-5.35,.43-5.26,5.21-7.39,9.56-6.04,1.3,.41,1.94,1.43,2.08,2.78,.26,2.61-1.95,6.76-4.33,7.93-.73,.36-1.58,.45-2.38,.67Z"/><path class="e" d="M35.95,63.74c4.32,0,7.29,2.97,7.08,7.11-.09,1.74-.79,3.18-2.4,3.96-1.74,.84-3.6,.93-5.21-.2-2.23-1.56-3.55-3.83-3.93-6.52-.41-2.91,1.13-4.35,4.45-4.35Z"/><path class="e" d="M25.48,37.75c.26-2.75,1.22-5.74,3.69-8.08,.99-.93,2.14-1.45,3.51-.93,1.37,.52,1.68,1.76,1.73,3.02,.11,3.34-.89,6.32-3.14,8.83-1.11,1.24-2.5,2.09-4.2,1.38-1.6-.67-1.59-2.22-1.59-4.21Z"/><path class="e" d="M69.68,32.49c0-.3-.02-.59,0-.89,.1-1.17,.38-2.28,1.57-2.82,1.29-.58,2.44-.14,3.42,.7,2.04,1.74,3.08,4.07,3.62,6.63,.23,1.1,.36,2.27,.24,3.37-.27,2.57-2.37,3.59-4.47,2.08-1.15-.83-2.21-2.03-2.84-3.3-.87-1.77-1.29-3.77-1.91-5.67l.36-.11Z"/></g></g></g></svg>