<?xml version="1.0" encoding="UTF-8"?><svg xmlns="http://www.w3.org/2000/svg" xmlns:xlink="http://www.w3.org/1999/xlink" viewBox="0 0 2148.72 1078.66"><defs><style>.j{fill:none;}.k{stroke-width:.64px;}.k,.l{fill:#092818;stroke:#346a40;stroke-miterlimit:10;}.m{fill:#9e2f21;}.n{fill:#acc968;}.o{fill:#da9c9c;}.p{fill:#112313;}.q{fill:#285433;}.r{fill:#346a40;}.s{fill:#599066;}.l{stroke-width:.41px;}.t{clip-path:url(#e);}</style><clipPath id="e"><rect class="j" width="2148.72" height="1078.66"/></clipPath></defs><g id="a"/><g id="b"><g id="c"><rect class="s" width="2148.72" height="1078.66"/></g><g id="d"><g class="t"><g><g><path class="o" d="M1070.09,816.15c5.11,29.48-1.03,48.27-7.1,59.62-10.14,18.96-24.37,25.22-66.15,60.02-14.09,11.74-25.29,21.71-32.51,28.26,3.53-15.6,9.36-33.97,19.21-53.39,25.57-50.44,64.01-79.96,86.55-94.51Z"/><path class="o" d="M997.72,842.63c-5.77,11.11-16.8,28.32-36.61,42.32-44.42,31.37-95.89,20.4-104.94,18.32,13.74-11.23,32.36-24.25,56.11-35.58,33.28-15.87,63.8-22.29,85.44-25.05Z"/><path class="o" d="M956.96,830.17c-64.31,20.9-98.08,12.42-117.18-.33-12.6-8.41-28.94-25.45-66.27-49.64-9.22-5.97-17.01-10.63-22.27-13.69,27.46-12.22,48.84-12.57,62.24-11.13,21.47,2.3,35.32,10.56,98.27,47.95,2.41,1.43,26.7,15.86,45.21,26.84Z"/><path class="m" d="M978.25,937.87c31.55-45.83,78.56-81.73,97.04-135.82-13.33,56.18-61.33,93.56-97.04,135.82h0Z"/><path class="m" d="M876.37,896.22c44.49-20.05,97.16-27.58,131.28-65.48-30.22,41.94-85.07,50.69-131.28,65.48h0Z"/><path class="m" d="M772.25,770.72c17.96-.27,35.04,7.01,50.74,15.1,15.69,8.21,31.04,16.77,47.63,22.98,22.52,8.84,46.28,14.54,70.28,17.53,10.91,1.25,22.07,1.99,33.07,2.2-8.84,.68-17.74,.76-26.63,.43-35.63-1.53-70.87-11.09-102.53-27.51-23.33-12.15-45.58-28.54-72.57-30.72h0Z"/></g><g><g id="f"><path class="n" d="M553.34-231.16c.34,.93,.39,2.33,.3,4.53-.44,11.68-.54,23.44-2.17,34.97-1.59,11.28-4.8,22.35-7.54,33.46-.6,2.44-.28,4.04,1.76,5.46,3.97,2.78,7.77,5.81,11.86,8.41,9.01,5.73,17.92,11.69,27.32,16.74,7.2,3.87,14.99,6.8,22.72,9.6,9.73,3.52,19.52,7.04,29.56,9.53,10.13,2.51,20.57,3.85,30.9,5.52,12.97,2.08,26.04,2.42,39.16,1.87,2.31-.1,3.91,11.37,3.03,5.01-2.07,.36-4.14,.69-6.2,1.07-14.24,2.63-28.65,2.83-43.08,3.3-10.68,.35-20.97-1.42-31.26-3.23-11.84-2.09-23.65-4.69-34.56-10.04-8.99-4.41-18.3-8.29-26.86-13.38-7.09-4.21-13.36-9.77-19.87-14.88-3.37-2.65-6.48-5.62-10.18-8.86-1.82,3.58-3.42,6.33-4.58,9.24-.38,.96-.04,2.72,.68,3.5,5.97,6.52,11.94,13.05,18.24,19.25,4.03,3.96,8.53,7.49,13,10.99,5.22,4.09,10.33,8.45,16.04,11.8,12.72,7.46,25.55,14.82,38.79,21.32,9.26,4.55,19.06,8.44,29.03,11.15,13.61,3.7,27.62,5.99,41.44,8.94,1.16,.25,2.23,.89,3.35,1.35l-.12,.95c-1.88,.3-3.77,.83-5.65,.85-12.99,.18-26,.18-38.81-2.36-11.91-2.36-24.06-4.16-35.56-7.83-11.43-3.65-22.75-8.4-33.12-14.34-15.37-8.8-29.49-19.51-40.58-33.5-4.23-5.34-8.31-10.79-13.13-17.07-1.64,4.34-3.25,8.11-4.48,12.01-1.54,4.89-2.6,9.93-4.17,14.82-1.37,4.23-.82,6.82,2.46,9.76,5.72,5.12,11.15,10.57,17.08,15.43,6.12,5.02,12.62,9.61,19.11,14.18,5.72,4.03,11.51,8.02,17.54,11.58,8.2,4.85,16.52,9.56,25.06,13.81,11.23,5.59,22.67,10.78,34.12,15.93,4.55,2.04,9.37,3.48,14.04,5.28,1.02,.39,1.9,1.13,2.6,2.26-26.23-1.87-51.14-8.64-74.87-19.28-23.92-10.72-44.68-25.69-60.27-46.94l-.99,.18c-.42,4.65-1.39,9.33-1.16,13.95,.59,12.02,1.57,24.02,2.74,36,.17,1.7,1.88,3.81,3.47,4.73,8.46,4.88,16.82,10.07,25.76,13.96,15.07,6.57,30.12,13.29,46.19,17.4,5.3,1.36,10.37,3.6,15.66,4.99,7.12,1.86,14.37,3.28,21.55,4.91,5,1.14,9.99,2.29,14.97,3.49,.49,.12,.89,.59,1.33,.9l-.08,1.04c-4.32,.18-8.64,.6-12.95,.5-8.72-.2-17.48-.2-26.12-1.17-9.66-1.08-19.21-3.1-28.79-4.8-12.69-2.25-24.63-6.73-36.01-12.5-6.29-3.19-12.14-7.22-18.8-11.24,1.43,3.53,2.48,7.01,4.18,10.15,4.98,9.19,10.15,18.28,15.43,27.3,.88,1.49,2.53,2.86,4.15,3.57,7.65,3.34,15.29,6.73,23.16,9.51,8.41,2.98,16.93,5.92,25.64,7.79,15.15,3.25,30.49,5.59,46.12,4.91,6.29-.27,12.57-.6,19.33-.33-1.58,.99-3.06,2.18-4.75,2.94-11.05,4.91-22.71,7.47-34.79,7.65-7.85,.11-15.85,.09-23.55-1.21-12.16-2.06-23.72-6.31-34.49-12.4-1.23-.69-2.61-1.13-3.91-1.69l-.62,.86c4.74,5.17,9.36,10.45,14.26,15.46,4.13,4.22,8.27,8.56,13.05,11.99,2.78,1.99,6.75,2.89,10.3,3.26,12.81,1.34,25.66,3.01,38.5,3.1,13.21,.09,26.44-1.54,39.66-2.41,.67-.04,1.34,.02,2.18,.52-9.11,7.12-19.95,9.99-31,12.76-11.14,2.79-22.24,1.32-33.41,.56l-.28,.85c.73,.67,1.37,1.49,2.21,1.98,6.99,4.08,14.2,7.84,20.99,12.22,7.94,5.11,16.85,5.89,25.76,5.91,12.67,.03,25.41-.15,38-1.41,11.75-1.17,23.36-3.71,34.98-5.94,4.68-.9,9.2-2.59,13.81-3.87,.9-.25,1.86-.26,2.94,.24-22.47,17.73-48.48,24.09-76.83,23.07l-.37,.93c2.3,1.12,4.63,2.2,6.9,3.38,8.66,4.5,17.23,9.17,25.98,13.49,2.71,1.34,5.85,2.28,8.86,2.52,23.44,1.85,46.41-.27,68.51-8.69,2.4-.91,4.72-2,7.08-3.01l.85,.84c-.73,.96-1.26,2.21-2.21,2.84-12.43,8.15-25.68,14.72-40.38,17.75-6.96,1.43-14.19,1.59-21.29,2.34-1.13,.12-2.25,.35-3.5,.55,5.04,6.35,9.38,12.85,14.84,18.28,2.8,2.79,7.42,4.27,11.49,5.3,9.1,2.31,18.34,4.23,27.6,5.82,6.21,1.06,12.56,1.27,18.85,1.91,1.31,.13,2.6,.49,3.85,1.38-16.77,5.83-33.72,6.71-50.96,1.72l-.84,1.32c1.66,2.22,2.91,4.99,5.06,6.58,13.08,9.71,28.06,16.17,42.74,23.08,4.72,2.22,9.87,3.56,14.78,5.41,1.93,.73,3.73,1.79,5.47,3.27-9.18,2.44-18.09,.79-27.02-1.2-9.16-2.03-17.57-5.77-25.9-10.54,4.59,9.55,8.01,19.28,8.64,29.7,.64,10.43-1.05,20.55-4.71,30.31l-1.36,.12c-.44-2.35-1.11-4.69-1.3-7.07-1.34-17.46-4.01-34.72-8.36-51.68-1.56-6.08-4.59-11.81-6.99-17.68-.2-.49-.73-.84-1.46-1.65-11.6,26.92-31.86,46.27-53.86,64.19l-1.07-.79c2.08-3.12,4.12-6.27,6.26-9.35,5.78-8.32,11.46-16.71,17.44-24.9,8.7-11.93,14.54-25.31,20.94-38.42,1.51-3.09,1.39-5.97-1.04-8.82-4.52-5.33-8.79-10.88-13.66-16.14-.41,20.96-11.29,37.23-23.08,52.92-3.59,4.78-6.96,10.3-13.51,13.23,.12-1.07,0-1.71,.27-2.08,7.43-10.28,12.02-21.95,16.01-33.7,4.46-13.12,6.58-26.76,4.88-40.76-.46-3.82-2.75-6.16-5.43-8.21-2.37-1.81-5.21-3.02-8.41-4.82,2.39,27.47-10.82,46.01-31.56,60.55l-1.19-.52c.12-.6,.04-1.34,.39-1.77,9.69-12.18,16.2-25.81,17.98-41.17,.84-7.25,.11-14.7-.25-22.04-.06-1.3-1.49-2.99-2.76-3.7-6.04-3.37-12.23-6.47-18.38-9.64-.28-.14-.68-.05-1.75-.11,5.46,27.57-6.88,47.66-27.19,64.3-.53-.22-1.07-.43-1.6-.65,.7-1.56,1.09-3.39,2.17-4.65,4.63-5.42,7.17-11.7,9.5-18.34,3.34-9.51,4.35-19.18,3.56-28.98-.55-6.83-2.32-13.57-3.79-20.3-.25-1.13-1.61-2.25-2.73-2.94-10.63-6.53-21.32-12.98-32.01-19.41-1.36-.82-2.85-1.41-4.73-1.91,9.83,20.31,9.38,40.24-2.18,59.32-3.93,6.49-7.82,13.65-16.09,16.87,1.04-2.65,1.87-5.41,3.16-7.94,4.38-8.64,6.14-17.93,7.29-27.36,1.85-15.24,.64-30.39-1.84-45.48-.53-3.21-2.3-5.42-5.04-7.32-2.78-1.93-5.15-4.47-7.54-6.88-7.23-7.29-14.38-14.65-21.58-21.96-.2-.2-.66-.16-1.64-.37,7.67,27.59,2.43,52.78-13.65,75.97-1.37,1.97-3.42,3.5-5.16,5.23-.33-.21-.66-.43-1-.64,.54-2.58,1.11-5.15,1.6-7.73,1.47-7.7,3.51-15.35,4.21-23.12,1.04-11.47,1.76-23.04,1.44-34.54-.31-11.57-1.68-23.15-3.37-34.62-.6-4.08-3.14-8.05-5.41-11.69-6.44-10.34-12.2-20.98-16.29-32.45-.15-.41-.43-.77-1.17-1.19-1.57,11.94-2.37,23.96-7.51,35.13-5.2,11.31-11.22,22.07-20.49,30.67-9,8.34-18.97,15.29-30.73,19.21-.26-.33-.51-.66-.77-1,.23-.46,.35-1.06,.72-1.36,10.76-8.83,19.54-19.14,26.11-31.4,6.02-11.23,12.01-22.41,15.32-34.76,3.2-11.95,6.7-23.84,9.49-35.89,.92-3.96,.05-8.32-.02-12.49-.18-10.86-.38-21.72-.58-32.58,0-.21-.2-.41-.58-1.18-1.19,1.01-2.51,1.76-3.31,2.87-7.02,9.7-15.28,18.31-24.34,26.14-13.1,11.33-27.7,20.33-43.97,26.87-14.95,6-30.36,9.27-46.43,9.88-1.22,.05-2.46-.21-4.79-.43,1.5-1.08,2.03-1.65,2.69-1.91,6.22-2.42,12.49-4.71,18.68-7.18,18.03-7.19,35.36-15.74,50.93-27.24,10.28-7.59,20.54-15.38,29.8-24.11,9.93-9.36,19.59-19.22,25.61-31.73,.88-1.82,1.25-3.87,1.49-6.27-43.02,27.63-88.56,27.31-136.13,13.69,2.49-3.56,5.53-1.84,7.9-1.95,10-.45,20.09,.16,30.01-.85,13.76-1.4,27.44-3.67,41.07-6.06,4.74-.83,9.21-3.16,13.82-4.73,7.66-2.62,15.58-4.65,22.95-7.9,8.81-3.88,17.39-8.4,25.55-13.46,2.66-1.65,3.77-5.8,5.38-8.9,1.19-2.29,2.14-4.71,3.03-7.14,.33-.9,.16-1.97,.22-2.97-1.01,0-2.13-.3-3.01,.03-6.67,2.49-13.55,3.75-20.67,3.95-8.18,.23-16.28-.38-24.02-3.04-10.46-3.6-21.15-6.84-31.07-11.58-8.74-4.18-16.59-10.14-24.75-15.45-4.28-2.78-8.35-5.86-12.56-8.75-3.17-2.17-3.44-2.98-1.3-6.22,2.17,1.32,4.25,2.88,6.57,3.94,12.57,5.73,25.06,11.72,38.53,15.28,9.65,2.55,19.21,5.96,29.04,7.24,9.85,1.29,20.02,.83,30.01,.31,5.39-.28,10.71-2.18,16.01-3.53,4.59-1.17,6.7-4.09,7.05-8.9,.57-7.81,2.14-15.54,2.63-23.35,.58-9.24,.2-18.43-.93-27.58"/></g><path class="r" d="M884.3,1309.53c7.64,14.62,17.49,29.9,14.85,46.12-1.1,6.75-4.35,13-8.26,18.66-22.25,32.23-65.4,45.8-104.97,42.52-39.56-3.28-76.36-20.76-110.99-39.78-17.82-9.79-35.67-20.32-49.24-35.29-13.57-14.97-22.47-35.21-19.21-54.98,7.41,15.51,24.33,25.12,41.57,27.91,17.24,2.78,34.9-.32,51.85-4.49,31.19-7.68,64.6-21.83,77.1-50.86,1.12-2.6,2.01-5.72,.5-8.12-1.47-2.35-4.6-3.02-7.39-3.35-17.94-2.17-36.45,.42-53.05,7.42-9.52,4.01-18.71,9.52-29.03,10.43-9.1,.8-18.07-2.09-26.73-4.95-30.33-10.03-61.26-20.55-86.36-40-25.11-19.45-43.73-49.84-40.27-81.02,49.98,43.77,120.4,64.17,186.64,54.07,8.57-1.31,18.9-4.91,19.96-13.35,1.33-10.6-12.58-15.79-23.33-17.57-23.99-3.97-47.72-9.44-71.01-16.36-31.71-9.43-64.08-22.61-84.71-48.03-20.63-25.42-24.84-66.12-1.2-88.87,8.26,25.3,29.22,45.11,52.94,57.97,23.72,12.86,50.28,19.64,76.53,26.29,10.62,2.69,25.66,3.08,28.52-7.3,1.8-6.55-3.15-12.96-8.31-17.48-30.24-26.47-77.29-30.3-103.93-60.25-23.67-26.61-22.59-70.97,2.34-96.45,1.52,21.14,14.91,40.09,31.74,53.39,16.83,13.3,36.99,21.81,56.87,30.16,10.18,4.27,25.72,6.36,28.95-4.02,1.17-3.74-.07-7.79-1.71-11.36-4.34-9.45-11.62-17.58-20.62-23.02-3.83,2.71-46.36-49.63-67.33-80.6-2.74-4.05-5.54-8.24-6.48-13.01-1.3-6.64,1.25-13.5,5.04-19.14,23.47-34.94,84.89-28.12,107.15-63.81,4.68,19.61,27.24,29.07,47.28,33.5,20.05,4.42,42.64,8.01,54.99,24.11,9.59,12.51,10.24,29.41,9.2,45.02-1.74,26.04-7.1,51.84-15.9,76.47-5.86,16.41-11.89,37.89,2.16,48.5,35.72-54.17,50.97-120.99,42.2-184.91,30.7,10.23,49.07,42.74,51.69,74.41,2.61,31.67-7.48,62.9-17.94,92.98-10.46,30.08-21.55,60.78-21.02,92.55,27.18-22.54,44.73-54.65,54.82-88.11,10.09-33.46,13.26-68.5,15.72-103.31,31.67,7.33,55.14,36.45,61.05,67.81,5.91,31.36-3.56,64.06-20.01,91.58-16.45,27.52-39.48,50.62-62.81,72.86-7.84,7.48-16.2,19.26-9.44,27.68,6.89,8.59,20.99,2.92,29.59-4.05,45.37-36.73,69.41-92.29,91.82-145.61,16.17,16.83,25.78,38.75,32.16,61,24.53,85.55,2.65,182.52-56.42,249.95-9.52,10.87-22.62,21.89-36.94,19.02-6.81-1.36-12.54-5.73-17.8-10.18-10.48-8.9-20.15-18.72-28.85-29.3-9.44-11.48-18.1-24.2-31-31.8-41-24.19-47.01,21.54-32.98,48.37Z"/><g><g><path class="o" d="M35.62,245.21c-5.11-29.48,1.03-48.27,7.1-59.62,10.14-18.96,24.37-25.22,66.15-60.02,14.09-11.74,25.29-21.71,32.51-28.26-3.53,15.6-9.36,33.97-19.21,53.39-25.57,50.44-64.01,79.96-86.55,94.51Z"/><path class="o" d="M107.99,218.73c5.77-11.11,16.8-28.32,36.61-42.32,44.42-31.37,95.89-20.4,104.94-18.32-13.74,11.23-32.36,24.25-56.11,35.58-33.28,15.87-63.8,22.29-85.44,25.05Z"/><path class="o" d="M148.75,231.19c64.31-20.9,98.08-12.42,117.18,.33,12.6,8.41,28.94,25.45,66.27,49.64,9.22,5.97,17.01,10.63,22.27,13.69-27.46,12.22-48.84,12.57-62.24,11.13-21.47-2.3-35.32-10.56-98.27-47.95-2.41-1.43-26.7-15.86-45.21-26.84Z"/><path class="m" d="M127.46,123.5c-31.55,45.83-78.56,81.73-97.04,135.82,13.33-56.18,61.33-93.56,97.04-135.82h0Z"/><path class="m" d="M229.34,165.14c-44.49,20.05-97.16,27.58-131.28,65.48,30.22-41.94,85.07-50.69,131.28-65.48h0Z"/><path class="m" d="M333.46,290.64c-17.96,.27-35.04-7.01-50.74-15.1-15.69-8.21-31.04-16.77-47.63-22.98-22.52-8.84-46.28-14.54-70.28-17.53-10.91-1.25-22.07-1.99-33.07-2.2,8.84-.68,17.74-.76,26.63-.43,35.63,1.53,70.87,11.09,102.53,27.51,23.33,12.15,45.58,28.54,72.57,30.72h0Z"/></g><path class="q" d="M-203.01,123.48c-12.8-3.68-27.2-6.47-35.31-16.85-3.37-4.32-5.28-9.58-6.47-14.89-6.81-30.24,8.83-62.09,32.43-82.68,23.6-20.59,54.05-31.84,84.23-41.01,15.53-4.72,31.51-9.05,47.76-8.54,16.25,.52,33.05,6.57,42.91,19.24-13.2-4.3-28.13,0-39.21,8.24-11.08,8.23-18.92,19.92-25.75,31.8-12.56,21.85-22.52,48.51-12.25,71.48,.92,2.06,2.27,4.27,4.51,4.73,2.19,.45,4.3-.95,6.02-2.34,11.1-8.96,19.71-20.85,24.67-34.08,2.85-7.58,4.64-15.8,9.75-22.14,4.51-5.59,11.13-9.08,17.56-12.41C-29.63,12.35-6.5,.61,18.72-2.94,43.93-6.5,72.03-.4,88.51,18.64,35.35,22.95-15.23,51.62-45.56,94.62c-3.93,5.57-7.46,13.38-3.06,18.6,5.52,6.56,16.2,1.53,23.13-3.58,15.48-11.4,31.7-21.83,48.53-31.21,22.92-12.78,48.42-23.88,74.69-21.63,26.27,2.25,52.57,22.15,53.03,47.99-19.43-9.18-42.59-8.17-63.15-1.79-20.57,6.38-39.11,17.7-57.4,28.9-7.4,4.53-15.87,12.83-11.32,20.13,2.87,4.61,9.36,5.32,14.85,4.87,32.16-2.62,60.18-27.14,92.42-25.8,28.64,1.18,54.19,26.09,55.55,54.15-13.29-10.71-31.79-13.52-48.84-11.28-17.06,2.24-33.11,8.98-48.92,15.66-8.09,3.42-17.83,11.07-13.49,18.58,1.57,2.71,4.63,4.23,7.63,5.26,7.94,2.72,16.72,3.06,24.86,.94,.5-3.65,54.63,.95,84.37,6.04,3.89,.67,7.89,1.38,11.22,3.46,4.62,2.9,7.27,8.1,8.52,13.33,7.73,32.41-29.92,63.43-21.08,95.57-14.11-8.09-32.05-.51-45.63,8.41-13.59,8.92-28.07,19.74-44.32,17.91-12.62-1.42-22.94-10.31-31.57-19.45-14.39-15.24-26.66-32.41-36.35-50.87-6.46-12.3-15.82-27.48-29.77-25.34,12.36,49.88,43.39,95.09,85.85,125.14-22.84,11.77-52.06,4.36-72.15-11.51-20.09-15.87-32.97-38.68-44.97-61.06s-24.02-45.48-43.02-62.58c-1.61,27.72,7.71,55.24,21.9,79.27,14.19,24.03,33.11,45.02,52.27,65.47-21.67,13.91-51.67,11.24-73.39-2.59-21.72-13.83-35.8-37.09-43.01-61.47-7.21-24.38-8.2-50.06-8.54-75.44-.11-8.53-2.47-19.71-11.14-20.5-8.84-.81-13.22,10.28-13.82,18.96-3.2,45.79,16.37,89.81,35.52,131.69-18.77-.07-36.95-6.63-53.56-15.21-63.85-32.97-109-98.45-116.4-168.8-1.19-11.34-.51-24.78,9.03-31.32,4.53-3.11,10.24-3.96,15.75-4.49,10.98-1.06,22.06-1.15,33.06-.27,11.94,.95,24.17,3.01,35.72-.12,36.71-9.95,13.05-38.39-10.44-45.15Z"/><path class="r" d="M222.47-235.43c-7.64-14.62-17.49-29.9-14.85-46.12,1.1-6.75,4.35-13,8.26-18.66,22.25-32.23,65.4-45.8,104.97-42.52,39.56,3.28,76.36,20.76,110.99,39.78,17.82,9.79,35.67,20.32,49.24,35.29,13.57,14.97,22.47,35.21,19.21,54.98-7.41-15.51-24.33-25.12-41.57-27.91-17.24-2.78-34.9,.32-51.85,4.49-31.19,7.68-64.6,21.83-77.1,50.86-1.12,2.6-2.01,5.72-.5,8.12,1.47,2.35,4.6,3.02,7.39,3.35,17.94,2.17,36.45-.42,53.05-7.42,9.52-4.01,18.71-9.52,29.03-10.43,9.1-.8,18.07,2.09,26.73,4.95,30.33,10.03,61.26,20.55,86.36,40,25.11,19.45,43.73,49.84,40.27,81.02-49.98-43.77-120.4-64.17-186.64-54.07-8.57,1.31-18.9,4.91-19.96,13.35-1.33,10.6,12.58,15.79,23.33,17.57,23.99,3.97,47.72,9.44,71.01,16.36,31.71,9.43,64.08,22.61,84.71,48.03,20.63,25.42,24.84,66.12,1.2,88.87-8.26-25.3-29.22-45.11-52.94-57.97-23.72-12.86-50.28-19.64-76.53-26.29-10.62-2.69-25.66-3.08-28.52,7.3-1.8,6.55,3.15,12.96,8.31,17.48,30.24,26.47,77.29,30.3,103.93,60.25,23.67,26.61,22.59,70.97-2.34,96.45-1.52-21.14-14.91-40.09-31.74-53.39-16.83-13.3-36.99-21.81-56.87-30.16-10.18-4.27-25.72-6.36-28.95,4.02-1.17,3.74,.07,7.79,1.71,11.36,4.34,9.45,11.62,17.58,20.62,23.02,3.83-2.71,46.36,49.63,67.33,80.6,2.74,4.05,5.54,8.24,6.48,13.01,1.3,6.64-1.25,13.5-5.04,19.14-23.47,34.94-84.89,28.12-107.15,63.81-4.68-19.61-27.24-29.07-47.28-33.5-20.05-4.42-42.64-8.01-54.99-24.11-9.59-12.51-10.24-29.41-9.2-45.02,1.74-26.04,7.1-51.84,15.9-76.47,5.86-16.41,11.89-37.89-2.16-48.5-35.72,54.17-50.97,120.99-42.2,184.91-30.7-10.23-49.07-42.74-51.69-74.41-2.61-31.67,7.48-62.9,17.94-92.98,10.46-30.08,21.55-60.78,21.02-92.55-27.18,22.54-44.73,54.65-54.82,88.11-10.09,33.46-13.26,68.5-15.72,103.31-31.67-7.33-55.14-36.45-61.05-67.81-5.91-31.36,3.56-64.06,20.01-91.58,16.45-27.52,39.48-50.62,62.81-72.86,7.84-7.48,16.2-19.26,9.44-27.68-6.89-8.59-20.99-2.92-29.59,4.05C97.1-37.26,73.05,18.3,50.65,71.62,34.48,54.8,24.87,32.87,18.49,10.62c-24.53-85.55-2.65-182.52,56.42-249.95,9.52-10.87,22.62-21.89,36.94-19.02,6.81,1.36,12.54,5.73,17.8,10.18,10.48,8.9,20.15,18.72,28.85,29.3,9.44,11.48,18.1,24.2,31,31.8,41,24.19,47.01-21.54,32.98-48.37Z"/></g><g><g><path class="o" d="M97.83,1143.07c-19.6-22.92-23.98-42.17-24.59-54.98-1.02-21.38,8.04-33.82,26.17-84.53,6.11-17.11,10.65-31.25,13.5-40.48,4.99,15.21,9.42,33.95,10.93,55.59,3.92,56.19-14.05,100.69-26.01,124.39Z"/><path class="o" d="M146.66,1084.41c-.75-12.44-.1-32.75,9.8-54.64,22.17-49.05,72.25-65.05,81.14-67.73-6.07,16.49-15.44,36.95-30.1,58.47-20.55,30.16-43.58,50.8-60.84,63.9Z"/><path class="o" d="M188.26,1075c44.75-49.86,78.26-59.25,101.31-57.69,15.21,1.03,38.09,7.65,82.78,10.06,11.04,.59,20.16,.76,26.28,.8-17.4,24.14-35.68,35.01-47.99,40.4-19.72,8.63-35.92,8.36-109.53,7.23-2.82-.04-31.22-.48-52.85-.8Z"/><path class="m" d="M114.38,992.57c-3.67,55.15-25.7,109.69-13.77,165.25-17.43-54.71,4.71-111.04,13.77-165.25h0Z"/><path class="m" d="M223.78,978.11c-28.1,39.32-69.66,71.84-79.58,121.47,4.47-51.09,47.36-85.87,79.58-121.47h0Z"/><path class="m" d="M378.32,1034.93c-15.46,9.15-33.92,11.29-51.57,12.07-17.7,.68-35.29,.87-52.78,3.7-23.95,3.49-47.43,10.29-69.75,19.6l-6.06,2.67c-8.06,3.61-15.95,7.62-23.74,11.86,36.89-24.96,81.17-38.71,125.63-40.54,26.29-1.05,53.76,2.12,78.28-9.36h0Z"/></g><path class="q" d="M-146.23,1031.17c-11.21,7.09-22.78,15.94-36.09,15.17-5.54-.32-10.85-2.35-15.74-4.93-27.8-14.71-42.18-47.13-42.66-78.09-.48-30.96,10.73-60.89,23.37-89.27,6.5-14.6,13.6-29.29,24.62-41,11.02-11.72,26.68-20.22,42.91-19.25-11.95,6.98-18.38,20.86-19.26,34.46-.89,13.6,3.02,27.06,7.73,39.88,8.67,23.59,22.75,48.4,47.2,55.8,2.19,.66,4.78,1.11,6.6-.25,1.78-1.33,2.07-3.81,2.13-6,.33-14.09-3.23-28.25-10.2-40.57-4-7.07-9.18-13.77-10.73-21.7-1.37-7,.26-14.19,1.89-21.13,5.7-24.33,11.76-49.16,25.49-70.18,13.73-21.02,36.81-37.88,62.29-37.66-31.42,42.25-42.33,98.5-28.93,149.09,1.73,6.55,5.46,14.28,12.37,14.43,8.67,.19,11.77-11.01,12.35-19.49,1.31-18.93,3.85-37.78,7.61-56.39,5.11-25.35,13.2-51.51,32.11-69.53,18.91-18.02,51.47-24.51,71.73-7.96-19.79,8.41-34.14,26.24-42.66,45.67-8.51,19.42-11.89,40.57-15.2,61.46-1.34,8.45-.46,20.15,8.15,21.55,5.43,.88,10.23-3.47,13.47-7.83,19-25.56,18.37-62.37,40.47-85.41,19.63-20.47,55.57-23.14,78.13-5.81-16.96,2.85-31.22,14.74-40.64,28.85-9.42,14.11-14.7,30.43-19.88,46.51-2.65,8.23-3.11,20.46,5.54,22.14,3.12,.61,6.29-.67,9.05-2.22,7.29-4.11,13.29-10.4,16.97-17.82-2.49-2.76,36.44-39.9,59.81-58.62,3.06-2.45,6.22-4.95,10-6.05,5.26-1.53,11.01-.1,15.87,2.4,30.09,15.45,29.44,63.64,60.04,78.09-15.47,5.18-21.34,23.43-23.33,39.34-1.99,15.9-3.1,33.72-15.13,44.57-9.35,8.43-22.96,10.27-35.66,10.7-21.18,.71-42.46-1.41-63.06-6.29-13.72-3.25-31.56-6.23-39.03,5.51,46.6,23.43,101.81,29.97,152.77,18.12-5.84,24.63-30.66,41.46-56.05,45.99-25.39,4.53-51.42-.83-76.56-6.56-25.13-5.73-50.82-11.91-76.46-8.99,20.36,19.31,47.7,30.39,75.54,35.57,27.84,5.18,56.41,4.87,84.73,4.02-3.42,25.16-25.09,45.67-49.97,52.73-24.88,7.07-52.05,2.31-75.59-8.28-23.54-10.59-44.03-26.63-63.85-42.97-6.66-5.49-16.84-11.05-23.12-5.14-6.4,6.03-.7,16.52,5.61,22.64,33.27,32.3,80.07,46.56,124.94,59.72-12.32,13.88-29.28,23.07-46.75,29.78-67.2,25.8-147.29,16.49-206.46-24-9.54-6.53-19.48-15.82-18.29-27.16,.56-5.39,3.63-10.19,6.82-14.61,6.36-8.84,13.53-17.11,21.4-24.7,8.53-8.23,18.12-15.96,23.25-26.57,16.31-33.73-21.12-34.77-41.7-21.76Z"/></g><g><g><path class="o" d="M961.87-54.84c19.6,22.92,23.98,42.17,24.59,54.98,1.02,21.38-8.04,33.82-26.17,84.53-6.11,17.11-10.65,31.25-13.5,40.48-4.99-15.21-9.42-33.95-10.93-55.59-3.92-56.19,14.05-100.69,26.01-124.39Z"/><path class="o" d="M913.04,3.83c.75,12.44,.1,32.75-9.8,54.64-22.17,49.05-72.25,65.05-81.14,67.73,6.07-16.49,15.44-36.95,30.1-58.47,20.55-30.16,43.58-50.8,60.84-63.9Z"/><path class="o" d="M871.44,13.24c-44.75,49.86-78.26,59.25-101.31,57.69-15.21-1.03-38.09-7.65-82.78-10.06-11.04-.59-20.16-.76-26.28-.8,17.4-24.14,35.68-35.01,47.99-40.4,19.72-8.63,35.92-8.36,109.53-7.23,2.82,.04,31.22,.48,52.85,.8Z"/><path class="m" d="M945.31,95.66c3.67-55.15,25.7-109.69,13.77-165.25,17.43,54.71-4.71,111.04-13.77,165.25h0Z"/><path class="m" d="M835.92,110.12c28.1-39.32,69.66-71.84,79.58-121.47-4.47,51.09-47.36,85.87-79.58,121.47h0Z"/><path class="m" d="M681.37,53.31c15.46-9.15,33.92-11.29,51.57-12.07,17.7-.68,35.29-.87,52.78-3.7,23.95-3.49,47.43-10.29,69.75-19.6l6.06-2.67c8.06-3.61,15.95-7.62,23.74-11.86-36.89,24.96-81.17,38.71-125.63,40.54-26.29,1.05-53.76-2.12-78.28,9.36h0Z"/></g><path class="q" d="M1205.93,57.07c11.21-7.09,22.78-15.94,36.09-15.17,5.54,.32,10.85,2.35,15.74,4.93,27.8,14.71,42.18,47.13,42.66,78.09,.48,30.96-10.73,60.89-23.37,89.27-6.5,14.6-13.6,29.29-24.62,41-11.02,11.72-26.68,20.22-42.91,19.25,11.95-6.98,18.38-20.86,19.26-34.46,.89-13.6-3.02-27.06-7.73-39.88-8.67-23.59-22.75-48.4-47.2-55.8-2.19-.66-4.78-1.11-6.6,.25-1.78,1.33-2.07,3.81-2.13,6-.33,14.09,3.23,28.25,10.2,40.57,4,7.07,9.18,13.77,10.73,21.7,1.37,7-.26,14.19-1.89,21.13-5.7,24.33-11.76,49.16-25.49,70.18-13.73,21.02-36.81,37.88-62.29,37.66,31.42-42.25,42.33-98.5,28.93-149.09-1.73-6.55-5.46-14.28-12.37-14.43-8.67-.19-11.77,11.01-12.35,19.49-1.31,18.93-3.85,37.78-7.61,56.39-5.11,25.35-13.2,51.51-32.11,69.53-18.91,18.02-51.47,24.51-71.73,7.96,19.79-8.41,34.14-26.24,42.66-45.67,8.51-19.42,11.89-40.57,15.2-61.46,1.34-8.45,.46-20.15-8.15-21.55-5.43-.88-10.23,3.47-13.47,7.83-19,25.56-18.37,62.37-40.47,85.41-19.63,20.47-55.57,23.14-78.13,5.81,16.96-2.85,31.22-14.74,40.64-28.85,9.42-14.11,14.7-30.43,19.88-46.51,2.65-8.23,3.11-20.46-5.54-22.14-3.12-.61-6.29,.67-9.05,2.22-7.29,4.11-13.29,10.4-16.97,17.82,2.49,2.76-36.44,39.9-59.81,58.62-3.06,2.45-6.22,4.95-10,6.05-5.26,1.53-11.01,.1-15.87-2.4-30.09-15.45-29.44-63.64-60.04-78.09,15.47-5.18,21.34-23.43,23.33-39.34,1.99-15.9,3.1-33.72,15.13-44.57,9.35-8.43,22.96-10.27,35.66-10.7,21.18-.71,42.46,1.41,63.06,6.29,13.72,3.25,31.56,6.23,39.03-5.51-46.6-23.43-101.81-29.97-152.77-18.12,5.84-24.63,30.66-41.46,56.05-45.99,25.39-4.53,51.42,.83,76.56,6.56,25.13,5.73,50.82,11.91,76.46,8.99-20.36-19.31-47.7-30.39-75.54-35.57-27.84-5.18-56.41-4.87-84.73-4.02,3.42-25.16,25.09-45.67,49.97-52.73,24.88-7.07,52.05-2.31,75.59,8.28,23.54,10.59,44.03,26.63,63.85,42.97,6.66,5.49,16.84,11.05,23.12,5.14,6.4-6.03,.7-16.52-5.61-22.64-33.27-32.3-80.07-46.56-124.94-59.72,12.32-13.88,29.28-23.07,46.75-29.78,67.2-25.8,147.29-16.49,206.46,24,9.54,6.53,19.48,15.82,18.29,27.16-.56,5.39-3.63,10.19-6.82,14.61-6.36,8.84-13.53,17.11-21.4,24.7-8.53,8.23-18.12,15.96-23.25,26.57-16.31,33.73,21.12,34.77,41.7,21.76Z"/></g><g id="g"><path class="n" d="M190.4,1245.43c.7-.71,1.95-1.37,4-2.28,10.86-4.82,21.65-9.98,32.91-13.69,11.01-3.64,22.56-5.75,33.93-8.31,2.5-.56,3.81-1.56,4.21-3.98,.77-4.72,1.84-9.41,2.4-14.15,1.22-10.46,2.69-20.93,3.11-31.43,.32-8.04-.47-16.18-1.37-24.21-1.12-10.1-2.27-20.26-4.48-30.17-2.23-10-5.65-19.76-8.74-29.56-3.88-12.3-9.41-23.92-15.75-35.18-1.12-1.99,8.64-8.5,3.22-4.89,1.25,1.65,2.48,3.32,3.75,4.96,8.76,11.32,15.36,23.86,22.22,36.32,5.08,9.21,8.06,19.03,10.99,28.86,3.37,11.31,6.26,22.83,6.24,34.79-.02,9.85,.59,19.75-.24,29.53-.69,8.09-2.96,16.07-4.73,24.06-.91,4.14-2.24,8.19-3.55,12.88,4.08,0,7.3,.18,10.48-.1,1.05-.09,2.5-1.18,2.89-2.15,3.29-8.14,6.59-16.29,9.44-24.58,1.82-5.3,3.04-10.82,4.24-16.3,1.41-6.41,3.11-12.83,3.62-19.33,1.14-14.48,2.14-29.02,2.18-43.53,.03-10.15-.79-20.48-2.76-30.43-2.69-13.59-6.84-26.9-10.31-40.34-.29-1.13-.18-2.36-.26-3.54l.92-.32c1.11,1.52,2.43,2.93,3.3,4.58,5.96,11.31,11.76,22.73,15.15,35.09,3.15,11.5,6.93,22.95,8.7,34.68,1.76,11.66,2.47,23.7,1.67,35.44-1.18,17.41-4.67,34.57-12.5,50.53-2.99,6.09-6.15,12.1-9.74,19.13,4.7-.5,8.86-.76,12.96-1.43,5.16-.83,10.23-2.15,15.39-2.95,4.47-.69,6.6-2.32,7.82-6.51,2.13-7.3,4.68-14.49,6.47-21.86,1.85-7.61,3.15-15.36,4.43-23.09,1.13-6.82,2.19-13.67,2.76-20.54,.77-9.36,1.36-18.75,1.44-28.13,.1-12.34-.26-24.69-.66-37.03-.16-4.9-1-9.78-1.44-14.67-.1-1.07,.19-2.17,.9-3.29,9.99,23.84,14.92,48.71,15.78,74.26,.87,25.76-3.55,50.65-16,73.79l.61,.79c4.44-1.7,9.14-2.94,13.26-5.2,10.72-5.87,21.24-12.09,31.66-18.46,1.48-.9,2.64-3.35,2.77-5.16,.68-9.59,1.69-19.24,1.27-28.82-.72-16.14-1.3-32.34-4.7-48.27-1.12-5.26-1.33-10.7-2.43-15.96-1.47-7.08-3.41-14.06-5.12-21.09-1.19-4.89-2.36-9.79-3.49-14.69-.11-.48,.14-1.04,.23-1.57l.98-.39c2.09,3.7,4.4,7.31,6.24,11.13,3.7,7.73,7.61,15.42,10.58,23.43,3.32,8.95,5.74,18.23,8.46,27.39,3.6,12.13,4.84,24.6,4.64,37.16-.11,6.94-1.18,13.87-1.88,21.5,2.59-2.83,5.3-5.3,7.41-8.19,6.17-8.46,12.17-17.05,18.06-25.71,.97-1.43,1.48-3.5,1.41-5.23-.36-8.19-.68-16.41-1.64-24.55-1.03-8.71-2.14-17.49-4.32-25.96-3.79-14.73-8.49-29.24-16.08-42.64-3.05-5.39-6.15-10.76-8.92-16.81,1.61,.94,3.36,1.71,4.8,2.86,9.41,7.5,16.95,16.59,22.5,27.1,3.61,6.84,7.15,13.87,9.4,21.2,3.54,11.59,4.81,23.62,4.06,35.78-.09,1.39,.13,2.79,.2,4.19l1.06,.16c2.6-6.46,5.37-12.87,7.76-19.4,2.01-5.5,4.13-11.07,5.13-16.79,.58-3.33-.37-7.21-1.62-10.49-4.49-11.83-8.69-23.85-14.34-35.15-5.81-11.63-13.2-22.5-19.89-33.71-.34-.57-.58-1.19-.5-2.14,10.57,4.81,18.02,13.04,25.48,21.5,7.52,8.53,11.13,18.92,15.41,29.05l.9-.13c.28-.94,.75-1.86,.82-2.82,.61-7.95,.83-15.95,1.8-23.86,1.12-9.24-2.13-17.4-6.09-25.23-5.63-11.13-11.47-22.22-18.23-32.7-6.31-9.78-13.81-18.83-21.03-28.02-2.91-3.7-6.47-6.92-9.69-10.39-.63-.68-1.07-1.52-1.09-2.68,26.21,11.81,43.63,31.78,55.34,57.1l1.02-.09c0-2.52-.06-5.04,.01-7.56,.25-9.6,.7-19.2,.74-28.8,.01-2.97-.52-6.15-1.65-8.9-8.77-21.38-20.94-40.58-38.49-56.21-1.9-1.69-3.93-3.25-5.9-4.87l.39-1.12c1.2,.21,2.58,.12,3.58,.67,12.99,7.27,24.9,15.95,34.22,27.5,4.41,5.46,7.78,11.73,11.64,17.63,.61,.94,1.32,1.81,2.06,2.83,3.56-7.25,7.55-13.96,10.08-21.17,1.3-3.7,.59-8.41-.28-12.44-1.95-9.02-4.31-17.97-6.99-26.81-1.79-5.92-4.44-11.59-6.66-17.39-.46-1.21-.72-2.5-.46-3.99,12.81,12.11,21.17,26.58,24.3,43.93l1.58,.15c1.29-2.45,3.26-4.78,3.76-7.38,3.03-15.81,2.26-31.82,2.02-47.78-.08-5.13-1.15-10.24-1.64-15.37-.19-2.02-.03-4.07,.55-6.26,6.32,6.97,8.79,15.52,10.95,24.23,2.23,8.94,2.56,17.98,1.92,27.42,6.67-8.28,14.05-15.62,23.28-20.82,9.24-5.21,19.24-8.24,29.78-9.39l.72,1.14c-1.95,1.44-3.79,3.07-5.88,4.29-15.35,8.96-29.93,19-43.48,30.38-4.86,4.08-8.74,9.29-13.03,14.01-.36,.39-.45,1.01-.86,2.02,29.76-1.83,56.48,7.31,82.65,18.61l-.25,1.29c-3.78-.44-7.56-.82-11.33-1.32-10.18-1.36-20.38-2.6-30.52-4.19-14.77-2.31-29.61-1.47-44.43-1.24-3.49,.05-6.07,1.44-7.6,4.84-2.85,6.35-6.02,12.56-8.65,19.18,19.33-8.98,39.04-6.7,58.64-3.36,5.97,1.02,12.51,1.51,18.11,5.95-1.03,.37-1.56,.76-2.02,.69-12.7-1.94-25.41-.75-37.92,.99-13.98,1.94-27.38,6.17-39.41,13.89-3.29,2.11-4.4,5.16-5.08,8.42-.6,2.89-.44,5.92-.65,9.53,24.03-14.35,46.85-11.03,69.38,.68l.05,1.27c-.6,.16-1.25,.56-1.79,.45-15.45-3.07-30.8-2.7-45.62,2.59-7,2.5-13.47,6.46-20.02,10.05-1.16,.63-2.06,2.64-2.14,4.07-.39,6.8-.45,13.61-.61,20.42,0,.31,.26,.62,.69,1.59,22.75-17.09,46.6-15.22,70.86-4.83,.04,.57,.08,1.13,.12,1.7-1.74,.08-3.58,.55-5.21,.17-7.02-1.64-13.89-1.07-20.99-.16-10.18,1.32-19.46,4.74-28.06,9.8-5.99,3.53-11.37,8.09-16.85,12.38-.92,.72-1.34,2.42-1.47,3.71-1.22,12.24-2.35,24.48-3.45,36.73-.14,1.55-.02,3.13,.37,4.99,14.17-17.68,32.58-26.17,55.16-24.54,7.68,.56,15.95,.78,22.59,6.58-2.89,.27-5.78,.77-8.66,.77-9.84,0-19.12,2.61-28.24,5.81-14.75,5.17-28.05,13-40.73,21.9-2.69,1.89-3.93,4.43-4.44,7.69-.52,3.3-1.78,6.5-2.92,9.68-3.43,9.59-6.97,19.14-10.44,28.72-.1,.26,.15,.65,.4,1.61,21.79-19.03,47.13-25.67,75.48-21.91,2.41,.32,4.72,1.44,7.07,2.19-.05,.39-.09,.77-.14,1.16-2.59,.68-5.2,1.32-7.78,2.04-7.69,2.15-15.59,3.77-23,6.61-10.94,4.2-21.83,8.74-32.2,14.14-10.43,5.43-20.4,11.8-30.12,18.39-3.46,2.35-5.95,6.34-8.27,9.96-6.57,10.26-13.73,20.06-22.38,28.75-.31,.31-.51,.72-.56,1.56,11.61-3.95,22.95-8.6,35.43-9.08,12.65-.48,25.17,0,37.15,4.3,11.63,4.17,22.43,9.82,31.25,18.39-.19,.37-.38,.75-.57,1.12-.53,0-1.12,.16-1.57-.02-12.86-5.49-26.19-8.6-40.33-8.9-12.95-.27-25.83-.54-38.59,2.07-12.35,2.52-24.77,4.76-37.01,7.68-4.03,.96-7.62,3.67-11.4,5.59-9.84,5-19.68,10.02-29.51,15.04-.19,.1-.29,.36-.81,1.04,1.45,.59,2.73,1.42,4.09,1.63,11.99,1.83,23.54,5.24,34.73,9.69,16.2,6.44,30.93,15.23,44.15,26.58,12.15,10.43,22.01,22.49,29.73,36.32,.59,1.05,.9,2.25,1.74,4.39-1.66-.83-2.42-1.04-2.94-1.51-4.98-4.37-9.87-8.85-14.89-13.19-14.61-12.61-30.15-23.99-47.6-32.52-11.52-5.63-23.21-11.15-35.31-15.38-12.97-4.54-26.3-8.61-40.4-8.31-2.05,.04-4.1,.63-6.39,1.49,44.42,25.41,64.44,65.49,73.21,113.29-4.36-.59-4.15-4.02-5.31-6.06-4.87-8.57-8.81-17.69-14.16-25.94-7.41-11.44-15.59-22.43-23.85-33.31-2.87-3.79-6.99-6.67-10.49-10.01-5.81-5.55-11.2-11.59-17.45-16.61-7.48-5.99-15.43-11.51-23.69-16.4-2.69-1.59-6.98-.72-10.53-.75-2.62-.02-5.26,.22-7.87,.53-.97,.11-1.87,.74-2.81,1.13,.44,.89,.68,2,1.37,2.62,5.25,4.74,9.47,10.21,12.83,16.37,3.86,7.07,6.92,14.45,7.94,22.42,1.38,10.78,3.18,21.6,3.28,32.41,.08,9.53-1.87,19.08-3.07,28.6-.63,4.99-1.63,9.94-2.39,14.92-.57,3.75-1.19,4.34-5.1,3.92,.24-2.5,.74-5.01,.67-7.52-.37-13.59-.47-27.2-3.23-40.6-1.98-9.61-3.12-19.5-6.34-28.7-3.22-9.21-8.17-17.93-13.1-26.45-2.66-4.6-6.77-8.42-10.37-12.47-3.11-3.5-6.73-4.05-11.28-2.21-7.38,2.98-15.15,5.05-22.5,8.11-8.69,3.61-16.93,8.05-24.77,13.11"/></g></g><g><g id="h"><path class="n" d="M1595.38,1309.11c-.34-.93-.39-2.33-.3-4.53,.44-11.68,.54-23.44,2.17-34.97,1.59-11.28,4.8-22.35,7.54-33.46,.6-2.44,.28-4.04-1.76-5.46-3.97-2.78-7.77-5.81-11.86-8.41-9.01-5.73-17.92-11.69-27.32-16.74-7.2-3.87-14.99-6.8-22.72-9.6-9.73-3.52-19.52-7.04-29.56-9.53-10.13-2.51-20.57-3.85-30.9-5.52-12.97-2.08-26.04-2.42-39.16-1.87-2.31,.1-3.91-11.37-3.03-5.01,2.07-.36,4.14-.69,6.2-1.07,14.24-2.63,28.65-2.83,43.08-3.3,10.68-.35,20.97,1.42,31.26,3.23,11.84,2.09,23.65,4.69,34.56,10.04,8.99,4.41,18.3,8.29,26.86,13.38,7.09,4.21,13.36,9.77,19.87,14.88,3.37,2.65,6.48,5.62,10.18,8.86,1.82-3.58,3.42-6.33,4.58-9.24,.38-.96,.04-2.72-.68-3.5-5.97-6.52-11.94-13.05-18.24-19.25-4.03-3.96-8.53-7.49-13-10.99-5.22-4.09-10.33-8.45-16.04-11.8-12.72-7.46-25.55-14.82-38.79-21.32-9.26-4.55-19.06-8.44-29.03-11.15-13.61-3.7-27.62-5.99-41.44-8.94-1.16-.25-2.23-.89-3.35-1.35l.12-.95c1.88-.3,3.77-.83,5.65-.85,12.99-.18,26-.18,38.81,2.36,11.91,2.36,24.06,4.16,35.56,7.83,11.43,3.65,22.75,8.4,33.12,14.34,15.37,8.8,29.49,19.51,40.58,33.5,4.23,5.34,8.31,10.79,13.13,17.07,1.64-4.34,3.25-8.11,4.48-12.01,1.54-4.89,2.6-9.93,4.17-14.82,1.37-4.23,.82-6.82-2.46-9.76-5.72-5.12-11.15-10.57-17.08-15.43-6.12-5.02-12.62-9.61-19.11-14.18-5.72-4.03-11.51-8.02-17.54-11.58-8.2-4.85-16.52-9.56-25.06-13.81-11.23-5.59-22.67-10.78-34.12-15.93-4.55-2.04-9.37-3.48-14.04-5.28-1.02-.39-1.9-1.13-2.6-2.26,26.23,1.87,51.14,8.64,74.87,19.28,23.92,10.72,44.68,25.69,60.27,46.94l.99-.18c.42-4.65,1.39-9.33,1.16-13.95-.59-12.02-1.57-24.02-2.74-36-.17-1.7-1.88-3.81-3.47-4.73-8.46-4.88-16.82-10.07-25.76-13.96-15.07-6.57-30.12-13.29-46.19-17.4-5.3-1.36-10.37-3.6-15.66-4.99-7.12-1.86-14.37-3.28-21.55-4.91-5-1.14-9.99-2.29-14.97-3.49-.49-.12-.89-.59-1.33-.9l.08-1.04c4.32-.18,8.64-.6,12.95-.5,8.72,.2,17.48,.2,26.12,1.17,9.66,1.08,19.21,3.1,28.79,4.8,12.69,2.25,24.63,6.73,36.01,12.5,6.29,3.19,12.14,7.22,18.8,11.24-1.43-3.53-2.48-7.01-4.18-10.15-4.98-9.19-10.15-18.28-15.43-27.3-.88-1.49-2.53-2.86-4.15-3.57-7.65-3.34-15.29-6.73-23.16-9.51-8.41-2.98-16.93-5.92-25.64-7.79-15.15-3.25-30.49-5.59-46.12-4.91-6.29,.27-12.57,.6-19.33,.33,1.58-.99,3.06-2.18,4.75-2.94,11.05-4.91,22.71-7.47,34.79-7.65,7.85-.11,15.85-.09,23.55,1.21,12.16,2.06,23.72,6.31,34.49,12.4,1.23,.69,2.61,1.13,3.91,1.69l.62-.86c-4.74-5.17-9.36-10.45-14.26-15.46-4.13-4.22-8.27-8.56-13.05-11.99-2.78-1.99-6.75-2.89-10.3-3.26-12.81-1.34-25.66-3.01-38.5-3.1-13.21-.09-26.44,1.54-39.66,2.41-.67,.04-1.34-.02-2.18-.52,9.11-7.12,19.95-9.99,31-12.76,11.14-2.79,22.24-1.32,33.41-.56l.28-.85c-.73-.67-1.37-1.49-2.21-1.98-6.99-4.08-14.2-7.84-20.99-12.22-7.94-5.11-16.85-5.89-25.76-5.91-12.67-.03-25.41,.15-38,1.41-11.75,1.17-23.36,3.71-34.98,5.94-4.68,.9-9.2,2.59-13.81,3.87-.9,.25-1.86,.26-2.94-.24,22.47-17.73,48.48-24.09,76.83-23.07l.37-.93c-2.3-1.12-4.63-2.2-6.9-3.38-8.66-4.5-17.23-9.17-25.98-13.49-2.71-1.34-5.85-2.28-8.86-2.52-23.44-1.85-46.41,.27-68.51,8.69-2.4,.91-4.72,2-7.08,3.01l-.85-.84c.73-.96,1.26-2.21,2.21-2.84,12.43-8.15,25.68-14.72,40.38-17.75,6.96-1.43,14.19-1.59,21.29-2.34,1.13-.12,2.25-.35,3.5-.55-5.04-6.35-9.38-12.85-14.84-18.28-2.8-2.79-7.42-4.27-11.49-5.3-9.1-2.31-18.34-4.23-27.6-5.82-6.21-1.06-12.56-1.27-18.85-1.91-1.31-.13-2.6-.49-3.85-1.38,16.77-5.83,33.72-6.71,50.96-1.72l.84-1.32c-1.66-2.22-2.91-4.99-5.06-6.58-13.08-9.71-28.06-16.17-42.74-23.08-4.72-2.22-9.87-3.56-14.78-5.41-1.93-.73-3.73-1.79-5.47-3.27,9.18-2.44,18.09-.79,27.02,1.2,9.16,2.03,17.57,5.77,25.9,10.54-4.59-9.55-8.01-19.28-8.64-29.7-.64-10.43,1.05-20.55,4.71-30.31l1.36-.12c.44,2.35,1.11,4.69,1.3,7.07,1.34,17.46,4.01,34.72,8.36,51.68,1.56,6.08,4.59,11.81,6.99,17.68,.2,.49,.73,.84,1.46,1.65,11.6-26.92,31.86-46.27,53.86-64.19l1.07,.79c-2.08,3.12-4.12,6.27-6.26,9.35-5.78,8.32-11.46,16.71-17.44,24.9-8.7,11.93-14.54,25.31-20.94,38.42-1.51,3.09-1.39,5.97,1.04,8.82,4.52,5.33,8.79,10.88,13.66,16.14,.41-20.96,11.29-37.23,23.08-52.92,3.59-4.78,6.96-10.3,13.51-13.23-.12,1.07,0,1.71-.27,2.08-7.43,10.28-12.02,21.95-16.01,33.7-4.46,13.12-6.58,26.76-4.88,40.76,.46,3.82,2.75,6.16,5.43,8.21,2.37,1.81,5.21,3.02,8.41,4.82-2.39-27.47,10.82-46.01,31.56-60.55l1.19,.52c-.12,.6-.04,1.34-.39,1.77-9.69,12.18-16.2,25.81-17.98,41.17-.84,7.25-.11,14.7,.25,22.04,.06,1.3,1.49,2.99,2.76,3.7,6.04,3.37,12.23,6.47,18.38,9.64,.28,.14,.68,.05,1.75,.11-5.46-27.57,6.88-47.66,27.19-64.3,.53,.22,1.07,.43,1.6,.65-.7,1.56-1.09,3.39-2.17,4.65-4.63,5.42-7.17,11.7-9.5,18.34-3.34,9.51-4.35,19.18-3.56,28.98,.55,6.83,2.32,13.57,3.79,20.3,.25,1.13,1.61,2.25,2.73,2.94,10.63,6.53,21.32,12.98,32.01,19.41,1.36,.82,2.85,1.41,4.73,1.91-9.83-20.31-9.38-40.24,2.18-59.32,3.93-6.49,7.82-13.65,16.09-16.87-1.04,2.65-1.87,5.41-3.16,7.94-4.38,8.64-6.14,17.93-7.29,27.36-1.85,15.24-.64,30.39,1.84,45.48,.53,3.21,2.3,5.42,5.04,7.32,2.78,1.93,5.15,4.47,7.54,6.88,7.23,7.29,14.38,14.65,21.58,21.96,.2,.2,.66,.16,1.64,.37-7.67-27.59-2.43-52.78,13.65-75.97,1.37-1.97,3.42-3.5,5.16-5.23,.33,.21,.66,.43,1,.64-.54,2.58-1.11,5.15-1.6,7.73-1.47,7.7-3.51,15.35-4.21,23.12-1.04,11.47-1.76,23.04-1.44,34.54,.31,11.57,1.68,23.15,3.37,34.62,.6,4.08,3.14,8.05,5.41,11.69,6.44,10.34,12.2,20.98,16.29,32.45,.15,.41,.43,.77,1.17,1.19,1.57-11.94,2.37-23.96,7.51-35.13,5.2-11.31,11.22-22.07,20.49-30.67,9-8.34,18.97-15.29,30.73-19.21,.26,.33,.51,.66,.77,1-.23,.46-.35,1.06-.72,1.36-10.76,8.83-19.54,19.14-26.11,31.4-6.02,11.23-12.01,22.41-15.32,34.76-3.2,11.95-6.7,23.84-9.49,35.89-.92,3.96-.05,8.32,.02,12.49,.18,10.86,.38,21.72,.58,32.58,0,.21,.2,.41,.58,1.18,1.19-1.01,2.51-1.76,3.31-2.87,7.02-9.7,15.28-18.31,24.34-26.14,13.1-11.33,27.7-20.33,43.97-26.87,14.95-6,30.36-9.27,46.43-9.88,1.22-.05,2.46,.21,4.79,.43-1.5,1.08-2.03,1.65-2.69,1.91-6.22,2.42-12.49,4.71-18.68,7.18-18.03,7.19-35.36,15.74-50.93,27.24-10.28,7.59-20.54,15.38-29.8,24.11-9.93,9.36-19.59,19.22-25.61,31.73-.88,1.82-1.25,3.87-1.49,6.27,43.02-27.63,88.56-27.31,136.13-13.69-2.49,3.56-5.53,1.84-7.9,1.95-10,.45-20.09-.16-30.01,.85-13.76,1.4-27.44,3.67-41.07,6.06-4.74,.83-9.21,3.16-13.82,4.73-7.66,2.62-15.58,4.65-22.95,7.9-8.81,3.88-17.39,8.4-25.55,13.46-2.66,1.65-3.77,5.8-5.38,8.9-1.19,2.29-2.14,4.71-3.03,7.14-.33,.9-.16,1.97-.22,2.97,1.01,0,2.13,.3,3.01-.03,6.67-2.49,13.55-3.75,20.67-3.95,8.18-.23,16.28,.38,24.02,3.04,10.46,3.6,21.15,6.84,31.07,11.58,8.74,4.18,16.59,10.14,24.75,15.45,4.28,2.78,8.35,5.86,12.56,8.75,3.17,2.17,3.44,2.98,1.3,6.22-2.17-1.32-4.25-2.88-6.57-3.94-12.57-5.73-25.06-11.72-38.53-15.28-9.65-2.55-19.21-5.96-29.04-7.24-9.85-1.29-20.02-.83-30.01-.31-5.39,.28-10.71,2.18-16.01,3.53-4.59,1.17-6.7,4.09-7.05,8.9-.57,7.81-2.14,15.54-2.63,23.35-.58,9.24-.2,18.43,.93,27.58"/></g><g><g><path class="o" d="M1077.57,249.07c-5.11-29.48,1.03-48.27,7.1-59.62,10.14-18.96,24.37-25.22,66.15-60.02,14.09-11.74,25.29-21.71,32.51-28.26-3.53,15.6-9.36,33.97-19.21,53.39-25.57,50.44-64.01,79.96-86.55,94.51Z"/><path class="o" d="M1149.94,222.59c5.77-11.11,16.8-28.32,36.61-42.32,44.42-31.37,95.89-20.4,104.94-18.32-13.74,11.23-32.36,24.25-56.11,35.58-33.28,15.87-63.8,22.29-85.44,25.05Z"/><path class="o" d="M1190.7,235.05c64.31-20.9,98.08-12.42,117.18,.33,12.6,8.41,28.94,25.45,66.27,49.64,9.22,5.97,17.01,10.63,22.27,13.69-27.46,12.22-48.84,12.57-62.24,11.13-21.47-2.3-35.32-10.56-98.27-47.95-2.41-1.43-26.7-15.86-45.21-26.84Z"/><path class="m" d="M1169.41,127.36c-31.55,45.83-78.56,81.73-97.04,135.82,13.33-56.18,61.33-93.56,97.04-135.82h0Z"/><path class="m" d="M1271.29,169c-44.49,20.05-97.16,27.58-131.28,65.48,30.22-41.94,85.07-50.69,131.28-65.48h0Z"/><path class="m" d="M1375.41,294.5c-17.96,.27-35.04-7.01-50.74-15.1-15.69-8.21-31.04-16.77-47.63-22.98-22.52-8.84-46.28-14.54-70.28-17.53-10.91-1.25-22.07-1.99-33.07-2.2,8.84-.68,17.74-.76,26.63-.43,35.63,1.53,70.87,11.09,102.53,27.51,23.33,12.15,45.58,28.54,72.57,30.72h0Z"/></g><path class="r" d="M1264.41-231.57c-7.64-14.62-17.49-29.9-14.85-46.12,1.1-6.75,4.35-13,8.26-18.66,22.25-32.23,65.4-45.8,104.97-42.52,39.56,3.28,76.36,20.76,110.99,39.78,17.82,9.79,35.67,20.32,49.24,35.29,13.57,14.97,22.47,35.21,19.21,54.98-7.41-15.51-24.33-25.12-41.57-27.91-17.24-2.78-34.9,.32-51.85,4.49-31.19,7.68-64.6,21.83-77.1,50.86-1.12,2.6-2.01,5.72-.5,8.12,1.47,2.35,4.6,3.02,7.39,3.35,17.94,2.17,36.45-.42,53.05-7.42,9.52-4.01,18.71-9.52,29.03-10.43,9.1-.8,18.07,2.09,26.73,4.95,30.33,10.03,61.26,20.55,86.36,40,25.11,19.45,43.73,49.84,40.27,81.02-49.98-43.77-120.4-64.17-186.64-54.07-8.57,1.31-18.9,4.91-19.96,13.35-1.33,10.6,12.58,15.79,23.33,17.57,23.99,3.97,47.72,9.44,71.01,16.36,31.71,9.43,64.08,22.61,84.71,48.03,20.63,25.42,24.84,66.12,1.2,88.87-8.26-25.3-29.22-45.11-52.94-57.97-23.72-12.86-50.28-19.64-76.53-26.29-10.62-2.69-25.66-3.08-28.52,7.3-1.8,6.55,3.15,12.96,8.31,17.48,30.24,26.47,77.29,30.3,103.93,60.25,23.67,26.61,22.59,70.97-2.34,96.45-1.52-21.14-14.91-40.09-31.74-53.39-16.83-13.3-36.99-21.81-56.87-30.16-10.18-4.27-25.72-6.36-28.95,4.02-1.17,3.74,.07,7.79,1.71,11.36,4.34,9.45,11.62,17.58,20.62,23.02,3.83-2.71,46.36,49.63,67.33,80.6,2.74,4.05,5.54,8.24,6.48,13.01,1.3,6.64-1.25,13.5-5.04,19.14-23.47,34.94-84.89,28.12-107.15,63.81-4.68-19.61-27.24-29.07-47.28-33.5-20.05-4.42-42.64-8.01-54.99-24.11-9.59-12.51-10.24-29.41-9.2-45.02,1.74-26.04,7.1-51.84,15.9-76.47,5.86-16.41,11.89-37.89-2.16-48.5-35.72,54.17-50.97,120.99-42.2,184.91-30.7-10.23-49.07-42.74-51.69-74.41-2.61-31.67,7.48-62.9,17.94-92.98,10.46-30.08,21.55-60.78,21.02-92.55-27.18,22.54-44.73,54.65-54.82,88.11-10.09,33.46-13.26,68.5-15.72,103.31-31.67-7.33-55.14-36.45-61.05-67.81-5.91-31.36,3.56-64.06,20.01-91.58,16.45-27.52,39.48-50.62,62.81-72.86,7.84-7.48,16.2-19.26,9.44-27.68-6.89-8.59-20.99-2.92-29.59,4.05-45.37,36.73-69.41,92.29-91.82,145.61-16.17-16.83-25.78-38.75-32.16-61-24.53-85.55-2.65-182.52,56.42-249.95,9.52-10.87,22.62-21.89,36.94-19.02,6.81,1.36,12.54,5.73,17.8,10.18,10.48,8.9,20.15,18.72,28.85,29.3,9.44,11.48,18.1,24.2,31,31.8,41,24.19,47.01-21.54,32.98-48.37Z"/></g><g><g><path class="o" d="M2113.1,832.74c5.11,29.48-1.03,48.27-7.1,59.62-10.14,18.96-24.37,25.22-66.15,60.02-14.09,11.74-25.29,21.71-32.51,28.26,3.53-15.6,9.36-33.97,19.21-53.39,25.57-50.44,64.01-79.96,86.55-94.51Z"/><path class="o" d="M2040.72,859.22c-5.77,11.11-16.8,28.32-36.61,42.32-44.42,31.37-95.89,20.4-104.94,18.32,13.74-11.23,32.36-24.25,56.11-35.58,33.28-15.87,63.8-22.29,85.44-25.05Z"/><path class="o" d="M1999.96,846.76c-64.31,20.9-98.08,12.42-117.18-.33-12.6-8.41-28.94-25.45-66.27-49.64-9.22-5.97-17.01-10.63-22.27-13.69,27.46-12.22,48.84-12.57,62.24-11.13,21.47,2.3,35.32,10.56,98.27,47.95,2.41,1.43,26.7,15.86,45.21,26.84Z"/><path class="m" d="M2021.26,954.46c31.55-45.83,78.56-81.73,97.04-135.82-13.33,56.18-61.33,93.56-97.04,135.82h0Z"/><path class="m" d="M1919.38,912.81c44.49-20.05,97.16-27.58,131.28-65.48-30.22,41.94-85.07,50.69-131.28,65.48h0Z"/><path class="m" d="M1815.26,787.31c17.96-.27,35.04,7.01,50.74,15.1,15.69,8.21,31.04,16.77,47.63,22.98,22.52,8.84,46.28,14.54,70.28,17.53,10.91,1.25,22.07,1.99,33.07,2.2-8.84,.68-17.74,.76-26.63,.43-35.63-1.53-70.87-11.09-102.53-27.51-23.33-12.15-45.58-28.54-72.57-30.72h0Z"/></g><path class="q" d="M2351.73,954.48c12.8,3.68,27.2,6.47,35.31,16.85,3.37,4.32,5.28,9.58,6.47,14.89,6.81,30.24-8.83,62.09-32.43,82.68-23.6,20.59-54.05,31.84-84.23,41.01-15.53,4.72-31.51,9.05-47.76,8.54-16.25-.52-33.05-6.57-42.91-19.24,13.2,4.3,28.13,0,39.21-8.24,11.08-8.23,18.92-19.92,25.75-31.8,12.56-21.85,22.52-48.51,12.25-71.48-.92-2.06-2.27-4.27-4.51-4.73-2.19-.45-4.3,.95-6.02,2.34-11.1,8.96-19.71,20.85-24.67,34.08-2.85,7.58-4.64,15.8-9.75,22.14-4.51,5.59-11.13,9.08-17.56,12.41-22.52,11.67-45.65,23.41-70.87,26.96-25.21,3.55-53.32-2.55-69.8-21.58,53.16-4.31,103.75-32.98,134.07-75.99,3.93-5.57,7.46-13.38,3.06-18.6-5.52-6.56-16.2-1.53-23.13,3.58-15.48,11.4-31.7,21.83-48.53,31.21-22.92,12.78-48.42,23.88-74.69,21.63-26.27-2.25-52.57-22.15-53.03-47.99,19.43,9.18,42.59,8.17,63.15,1.79,20.57-6.38,39.11-17.7,57.4-28.9,7.4-4.53,15.87-12.83,11.32-20.13-2.87-4.61-9.36-5.32-14.85-4.87-32.16,2.62-60.18,27.14-92.42,25.8-28.64-1.18-54.19-26.09-55.55-54.15,13.29,10.71,31.79,13.52,48.84,11.28,17.06-2.24,33.11-8.98,48.92-15.66,8.09-3.42,17.83-11.07,13.49-18.58-1.57-2.71-4.63-4.23-7.63-5.26-7.94-2.72-16.72-3.06-24.86-.94-.5,3.65-54.63-.95-84.37-6.04-3.89-.67-7.89-1.38-11.22-3.46-4.62-2.9-7.27-8.1-8.52-13.33-7.73-32.41,29.92-63.43,21.08-95.57,14.11,8.09,32.05,.51,45.63-8.41,13.59-8.92,28.07-19.74,44.32-17.91,12.62,1.42,22.94,10.31,31.57,19.45,14.39,15.24,26.66,32.41,36.35,50.87,6.46,12.3,15.82,27.48,29.77,25.34-12.36-49.88-43.39-95.09-85.85-125.14,22.84-11.77,52.06-4.36,72.15,11.51,20.09,15.87,32.97,38.68,44.97,61.06,12,22.39,24.02,45.48,43.02,62.58,1.61-27.72-7.71-55.24-21.9-79.27-14.19-24.03-33.11-45.02-52.27-65.47,21.67-13.91,51.67-11.24,73.39,2.59,21.72,13.83,35.8,37.09,43.01,61.47,7.21,24.38,8.2,50.06,8.54,75.44,.11,8.53,2.47,19.71,11.14,20.5,8.84,.81,13.22-10.28,13.82-18.96,3.2-45.79-16.37-89.81-35.52-131.69,18.77,.07,36.95,6.63,53.56,15.21,63.85,32.97,109,98.45,116.4,168.8,1.19,11.34,.51,24.78-9.03,31.32-4.53,3.11-10.24,3.96-15.75,4.49-10.98,1.06-22.06,1.15-33.06,.27-11.94-.95-24.17-3.01-35.72,.12-36.71,9.95-13.05,38.39,10.44,45.15Z"/><path class="r" d="M1926.25,1313.39c7.64,14.62,17.49,29.9,14.85,46.12-1.1,6.75-4.35,13-8.26,18.66-22.25,32.23-65.4,45.8-104.97,42.52-39.56-3.28-76.36-20.76-110.99-39.78-17.82-9.79-35.67-20.32-49.24-35.29-13.57-14.97-22.47-35.21-19.21-54.98,7.41,15.51,24.33,25.12,41.57,27.91,17.24,2.78,34.9-.32,51.85-4.49,31.19-7.68,64.6-21.83,77.1-50.86,1.12-2.6,2.01-5.72,.5-8.12-1.47-2.35-4.6-3.02-7.39-3.35-17.94-2.17-36.45,.42-53.05,7.42-9.52,4.01-18.71,9.52-29.03,10.43-9.1,.8-18.07-2.09-26.73-4.95-30.33-10.03-61.26-20.55-86.36-40-25.11-19.45-43.73-49.84-40.27-81.02,49.98,43.77,120.4,64.17,186.64,54.07,8.57-1.31,18.9-4.91,19.96-13.35,1.33-10.6-12.58-15.79-23.33-17.57-23.99-3.97-47.72-9.44-71.01-16.36-31.71-9.43-64.08-22.61-84.71-48.03-20.63-25.42-24.84-66.12-1.2-88.87,8.26,25.3,29.22,45.11,52.94,57.97,23.72,12.86,50.28,19.64,76.53,26.29,10.62,2.69,25.66,3.08,28.52-7.3,1.8-6.55-3.15-12.96-8.31-17.48-30.24-26.47-77.29-30.3-103.93-60.25-23.67-26.61-22.59-70.97,2.34-96.45,1.52,21.14,14.91,40.09,31.74,53.39,16.83,13.3,36.99,21.81,56.87,30.16,10.18,4.27,25.72,6.36,28.95-4.02,1.17-3.74-.07-7.79-1.71-11.36-4.34-9.45-11.62-17.58-20.62-23.02-3.83,2.71-46.36-49.63-67.33-80.6-2.74-4.05-5.54-8.24-6.48-13.01-1.3-6.64,1.25-13.5,5.04-19.14,23.47-34.94,84.89-28.12,107.15-63.81,4.68,19.61,27.24,29.07,47.28,33.5,20.05,4.42,42.64,8.01,54.99,24.11,9.59,12.51,10.24,29.41,9.2,45.02-1.74,26.04-7.1,51.84-15.9,76.47-5.86,16.41-11.89,37.89,2.16,48.5,35.72-54.17,50.97-120.99,42.2-184.91,30.7,10.23,49.07,42.74,51.69,74.41,2.61,31.67-7.48,62.9-17.94,92.98-10.46,30.08-21.55,60.78-21.02,92.55,27.18-22.54,44.73-54.65,54.82-88.11,10.09-33.46,13.26-68.5,15.72-103.31,31.67,7.33,55.14,36.45,61.05,67.81,5.91,31.36-3.56,64.06-20.01,91.58-16.45,27.52-39.48,50.62-62.81,72.86-7.84,7.48-16.2,19.26-9.44,27.68,6.89,8.59,20.99,2.92,29.59-4.05,45.37-36.73,69.41-92.29,91.82-145.61,16.17,16.83,25.78,38.75,32.16,61,24.53,85.55,2.65,182.52-56.42,249.95-9.52,10.87-22.62,21.89-36.94,19.02-6.81-1.36-12.54-5.73-17.8-10.18-10.48-8.9-20.15-18.72-28.85-29.3-9.44-11.48-18.1-24.2-31-31.8-41-24.19-47.01,21.54-32.98,48.37Z"/></g><g><g><path class="o" d="M2050.89-65.12c19.6,22.92,23.98,42.17,24.59,54.98,1.02,21.38-8.04,33.82-26.17,84.53-6.11,17.11-10.65,31.25-13.5,40.48-4.99-15.21-9.42-33.95-10.93-55.59-3.92-56.19,14.05-100.69,26.01-124.39Z"/><path class="o" d="M2002.06-6.45c.75,12.44,.1,32.75-9.8,54.64-22.17,49.05-72.25,65.05-81.14,67.73,6.07-16.49,15.44-36.95,30.1-58.47,20.55-30.16,43.58-50.8,60.84-63.9Z"/><path class="o" d="M1960.46,2.96c-44.75,49.86-78.26,59.25-101.31,57.69-15.21-1.03-38.09-7.65-82.78-10.06-11.04-.59-20.16-.76-26.28-.8,17.4-24.14,35.68-35.01,47.99-40.4,19.72-8.63,35.92-8.36,109.53-7.23,2.82,.04,31.22,.48,52.85,.8Z"/><path class="m" d="M2034.33,85.38c3.67-55.15,25.7-109.69,13.77-165.25,17.43,54.71-4.71,111.04-13.77,165.25h0Z"/><path class="m" d="M1924.94,99.84c28.1-39.32,69.66-71.84,79.58-121.47-4.47,51.09-47.36,85.87-79.58,121.47h0Z"/><path class="m" d="M1770.39,43.03c15.46-9.15,33.92-11.29,51.57-12.07,17.7-.68,35.29-.87,52.78-3.7,23.95-3.49,47.43-10.29,69.75-19.6l6.06-2.67c8.06-3.61,15.95-7.62,23.74-11.86-36.89,24.96-81.17,38.71-125.63,40.54-26.29,1.05-53.76-2.12-78.28,9.36h0Z"/></g><path class="q" d="M2294.95,46.79c11.21-7.09,22.78-15.94,36.09-15.17,5.54,.32,10.85,2.35,15.74,4.93,27.8,14.71,42.18,47.13,42.66,78.09,.48,30.96-10.73,60.89-23.37,89.27-6.5,14.6-13.6,29.29-24.62,41-11.02,11.72-26.68,20.22-42.91,19.25,11.95-6.98,18.38-20.86,19.26-34.46,.89-13.6-3.02-27.06-7.73-39.88-8.67-23.59-22.75-48.4-47.2-55.8-2.19-.66-4.78-1.11-6.6,.25-1.78,1.33-2.07,3.81-2.13,6-.33,14.09,3.23,28.25,10.2,40.57,4,7.07,9.18,13.77,10.73,21.7,1.37,7-.26,14.19-1.89,21.13-5.7,24.33-11.76,49.16-25.49,70.18-13.73,21.02-36.81,37.88-62.29,37.66,31.42-42.25,42.33-98.5,28.93-149.09-1.73-6.55-5.46-14.28-12.37-14.43-8.67-.19-11.77,11.01-12.35,19.49-1.31,18.93-3.85,37.78-7.61,56.39-5.11,25.35-13.2,51.51-32.11,69.53-18.91,18.02-51.47,24.51-71.73,7.96,19.79-8.41,34.14-26.24,42.66-45.67,8.51-19.42,11.89-40.57,15.2-61.46,1.34-8.45,.46-20.15-8.15-21.55-5.43-.88-10.23,3.47-13.47,7.83-19,25.56-18.37,62.37-40.47,85.41-19.63,20.47-55.57,23.14-78.13,5.81,16.96-2.85,31.22-14.74,40.64-28.85,9.42-14.11,14.7-30.43,19.88-46.51,2.65-8.23,3.11-20.46-5.54-22.14-3.12-.61-6.29,.67-9.05,2.22-7.29,4.11-13.29,10.4-16.97,17.82,2.49,2.76-36.44,39.9-59.81,58.62-3.06,2.45-6.22,4.95-10,6.05-5.26,1.53-11.01,.1-15.87-2.4-30.09-15.45-29.44-63.64-60.04-78.09,15.47-5.18,21.34-23.43,23.33-39.34,1.99-15.9,3.1-33.72,15.13-44.57,9.35-8.43,22.96-10.27,35.66-10.7,21.18-.71,42.46,1.41,63.06,6.29,13.72,3.25,31.56,6.23,39.03-5.51-46.6-23.43-101.81-29.97-152.77-18.12,5.84-24.63,30.66-41.46,56.05-45.99,25.39-4.53,51.42,.83,76.56,6.56s50.82,11.91,76.46,8.99c-20.36-19.31-47.7-30.39-75.54-35.57-27.84-5.18-56.41-4.87-84.73-4.02,3.42-25.16,25.09-45.67,49.97-52.73,24.88-7.07,52.05-2.31,75.59,8.28,23.54,10.59,44.03,26.63,63.85,42.97,6.66,5.49,16.84,11.05,23.12,5.14,6.4-6.03,.7-16.52-5.61-22.64-33.27-32.3-80.07-46.56-124.94-59.72,12.32-13.88,29.28-23.07,46.75-29.78,67.2-25.8,147.29-16.49,206.46,24,9.54,6.53,19.48,15.82,18.29,27.16-.56,5.39-3.63,10.19-6.82,14.61-6.36,8.84-13.53,17.11-21.4,24.7-8.53,8.23-18.12,15.96-23.25,26.57-16.31,33.73,21.12,34.77,41.7,21.76Z"/></g><g><g><path class="o" d="M1186.85,1132.79c-19.6-22.92-23.98-42.17-24.59-54.98-1.02-21.38,8.04-33.82,26.17-84.53,6.11-17.11,10.65-31.25,13.5-40.48,4.99,15.21,9.42,33.95,10.93,55.59,3.92,56.19-14.05,100.69-26.01,124.39Z"/><path class="o" d="M1235.68,1074.13c-.75-12.44-.1-32.75,9.8-54.64,22.17-49.05,72.25-65.05,81.14-67.73-6.07,16.49-15.44,36.95-30.1,58.47-20.55,30.16-43.58,50.8-60.84,63.9Z"/><path class="o" d="M1277.28,1064.72c44.75-49.86,78.26-59.25,101.31-57.69,15.21,1.03,38.09,7.65,82.78,10.06,11.04,.59,20.16,.76,26.28,.8-17.4,24.14-35.68,35.01-47.99,40.4-19.72,8.63-35.92,8.36-109.53,7.23-2.82-.04-31.22-.48-52.85-.8Z"/><path class="m" d="M1203.4,982.29c-3.67,55.15-25.7,109.69-13.77,165.25-17.43-54.71,4.71-111.04,13.77-165.25h0Z"/><path class="m" d="M1312.8,967.83c-28.1,39.32-69.66,71.84-79.58,121.47,4.47-51.09,47.36-85.87,79.58-121.47h0Z"/><path class="m" d="M1467.34,1024.65c-15.46,9.15-33.92,11.29-51.57,12.07-17.7,.68-35.29,.87-52.78,3.7-23.95,3.49-47.43,10.29-69.75,19.6l-6.06,2.67c-8.06,3.61-15.95,7.62-23.74,11.86,36.89-24.96,81.17-38.71,125.63-40.54,26.29-1.05,53.76,2.12,78.28-9.36h0Z"/></g><path class="q" d="M942.79,1020.89c-11.21,7.09-22.78,15.94-36.09,15.17-5.54-.32-10.85-2.35-15.74-4.93-27.8-14.71-42.18-47.13-42.66-78.09-.48-30.96,10.73-60.89,23.37-89.27,6.5-14.6,13.6-29.29,24.62-41,11.02-11.72,26.68-20.22,42.91-19.25-11.95,6.98-18.38,20.86-19.26,34.46-.89,13.6,3.02,27.06,7.73,39.88,8.67,23.59,22.75,48.4,47.2,55.8,2.19,.66,4.78,1.11,6.6-.25,1.78-1.33,2.07-3.81,2.13-6,.33-14.09-3.23-28.25-10.2-40.57-4-7.07-9.18-13.77-10.73-21.7-1.37-7,.26-14.19,1.89-21.13,5.7-24.33,11.76-49.16,25.49-70.18,13.73-21.02,36.81-37.88,62.29-37.66-31.42,42.25-42.33,98.5-28.93,149.09,1.73,6.55,5.46,14.28,12.37,14.43,8.67,.19,11.77-11.01,12.35-19.49,1.31-18.93,3.85-37.78,7.61-56.39,5.11-25.35,13.2-51.51,32.11-69.53,18.91-18.02,51.47-24.51,71.73-7.96-19.79,8.41-34.14,26.24-42.66,45.67-8.51,19.42-11.89,40.57-15.2,61.46-1.34,8.45-.46,20.15,8.15,21.55,5.43,.88,10.23-3.47,13.47-7.83,19-25.56,18.37-62.37,40.47-85.41,19.63-20.47,55.57-23.14,78.13-5.81-16.96,2.85-31.22,14.74-40.64,28.85-9.42,14.11-14.7,30.43-19.88,46.51-2.65,8.23-3.11,20.46,5.54,22.14,3.12,.61,6.29-.67,9.05-2.22,7.29-4.11,13.29-10.4,16.97-17.82-2.49-2.76,36.44-39.9,59.81-58.62,3.06-2.45,6.22-4.95,10-6.05,5.26-1.53,11.01-.1,15.87,2.4,30.09,15.45,29.44,63.64,60.04,78.09-15.47,5.18-21.34,23.43-23.33,39.34-1.99,15.9-3.1,33.72-15.13,44.57-9.35,8.43-22.96,10.27-35.66,10.7-21.18,.71-42.46-1.41-63.06-6.29-13.72-3.25-31.56-6.23-39.03,5.51,46.6,23.43,101.81,29.97,152.77,18.12-5.84,24.63-30.66,41.46-56.05,45.99-25.39,4.53-51.42-.83-76.56-6.56-25.13-5.73-50.82-11.91-76.46-8.99,20.36,19.31,47.7,30.39,75.54,35.57,27.84,5.18,56.41,4.87,84.73,4.02-3.42,25.16-25.09,45.67-49.97,52.73-24.88,7.07-52.05,2.31-75.59-8.28-23.54-10.59-44.03-26.63-63.85-42.97-6.66-5.49-16.84-11.05-23.12-5.14-6.4,6.03-.7,16.52,5.61,22.64,33.27,32.3,80.07,46.56,124.94,59.72-12.32,13.88-29.28,23.07-46.75,29.78-67.2,25.8-147.29,16.49-206.46-24-9.54-6.53-19.48-15.82-18.29-27.16,.56-5.39,3.63-10.19,6.82-14.61,6.36-8.84,13.53-17.11,21.4-24.7,8.53-8.23,18.12-15.96,23.25-26.57,16.31-33.73-21.12-34.77-41.7-21.76Z"/></g><g id="i"><path class="n" d="M1958.32-167.48c-.7,.71-1.95,1.37-4,2.28-10.86,4.82-21.65,9.98-32.91,13.69-11.01,3.64-22.56,5.75-33.93,8.31-2.5,.56-3.81,1.56-4.21,3.98-.77,4.72-1.84,9.41-2.4,14.15-1.22,10.46-2.69,20.93-3.11,31.43-.32,8.04,.47,16.18,1.37,24.21,1.12,10.1,2.27,20.26,4.48,30.17,2.23,10,5.65,19.76,8.74,29.56,3.88,12.3,9.41,23.92,15.75,35.18,1.12,1.99-8.64,8.5-3.22,4.89-1.25-1.65-2.48-3.32-3.75-4.96-8.76-11.32-15.36-23.86-22.22-36.32-5.08-9.21-8.06-19.03-10.99-28.86-3.37-11.31-6.26-22.83-6.24-34.79,.02-9.85-.59-19.75,.24-29.53,.69-8.09,2.96-16.07,4.73-24.06,.91-4.14,2.24-8.19,3.55-12.88-4.08,0-7.3-.18-10.48,.1-1.05,.09-2.5,1.18-2.89,2.15-3.29,8.14-6.59,16.29-9.44,24.58-1.82,5.3-3.04,10.82-4.24,16.3-1.41,6.41-3.11,12.83-3.62,19.33-1.14,14.48-2.14,29.02-2.18,43.53-.03,10.15,.79,20.48,2.76,30.43,2.69,13.59,6.84,26.9,10.31,40.34,.29,1.13,.18,2.36,.26,3.54l-.92,.32c-1.11-1.52-2.43-2.93-3.3-4.58-5.96-11.31-11.76-22.73-15.15-35.09-3.15-11.5-6.93-22.95-8.7-34.68-1.76-11.66-2.47-23.7-1.67-35.44,1.18-17.41,4.67-34.57,12.5-50.53,2.99-6.09,6.15-12.1,9.74-19.13-4.7,.5-8.86,.76-12.96,1.43-5.16,.83-10.23,2.15-15.39,2.95-4.47,.69-6.6,2.32-7.82,6.51-2.13,7.3-4.68,14.49-6.47,21.86-1.85,7.61-3.15,15.36-4.43,23.09-1.13,6.82-2.19,13.67-2.76,20.54-.77,9.36-1.36,18.75-1.44,28.13-.1,12.34,.26,24.69,.66,37.03,.16,4.9,1,9.78,1.44,14.67,.1,1.07-.19,2.17-.9,3.29-9.99-23.84-14.92-48.71-15.78-74.26-.87-25.76,3.55-50.65,16-73.79l-.61-.79c-4.44,1.7-9.14,2.94-13.26,5.2-10.72,5.87-21.24,12.09-31.66,18.46-1.48,.9-2.64,3.35-2.77,5.16-.68,9.59-1.69,19.24-1.27,28.82,.72,16.14,1.3,32.34,4.7,48.27,1.12,5.26,1.33,10.7,2.43,15.96,1.47,7.08,3.41,14.06,5.12,21.09,1.19,4.89,2.36,9.79,3.49,14.69,.11,.48-.14,1.04-.23,1.57l-.98,.39c-2.09-3.7-4.4-7.31-6.24-11.13-3.7-7.73-7.61-15.42-10.58-23.43-3.32-8.95-5.74-18.23-8.46-27.39-3.6-12.13-4.84-24.6-4.64-37.16,.11-6.94,1.18-13.87,1.88-21.5-2.59,2.83-5.3,5.3-7.41,8.19-6.17,8.46-12.17,17.05-18.06,25.71-.97,1.43-1.48,3.5-1.41,5.23,.36,8.19,.68,16.41,1.64,24.55,1.03,8.71,2.14,17.49,4.32,25.96,3.79,14.73,8.49,29.24,16.08,42.64,3.05,5.39,6.15,10.76,8.92,16.81-1.61-.94-3.36-1.71-4.8-2.86-9.41-7.5-16.95-16.59-22.5-27.1-3.61-6.84-7.15-13.87-9.4-21.2-3.54-11.59-4.81-23.62-4.06-35.78,.09-1.39-.13-2.79-.2-4.19l-1.06-.16c-2.6,6.46-5.37,12.87-7.76,19.4-2.01,5.5-4.13,11.07-5.13,16.79-.58,3.33,.37,7.21,1.62,10.49,4.49,11.83,8.69,23.85,14.34,35.15,5.81,11.63,13.2,22.5,19.89,33.71,.34,.57,.58,1.19,.5,2.14-10.57-4.81-18.02-13.04-25.48-21.5-7.52-8.53-11.13-18.92-15.41-29.05l-.9,.13c-.28,.94-.75,1.86-.82,2.82-.61,7.95-.83,15.95-1.8,23.86-1.12,9.24,2.13,17.4,6.09,25.23,5.63,11.13,11.47,22.22,18.23,32.7,6.31,9.78,13.81,18.83,21.03,28.02,2.91,3.7,6.47,6.92,9.69,10.39,.63,.68,1.07,1.52,1.09,2.68-26.21-11.81-43.63-31.78-55.34-57.1l-1.02,.09c0,2.52,.06,5.04-.01,7.56-.25,9.6-.7,19.2-.74,28.8-.01,2.97,.52,6.15,1.65,8.9,8.77,21.38,20.94,40.58,38.49,56.21,1.9,1.69,3.93,3.25,5.9,4.87l-.39,1.12c-1.2-.21-2.58-.12-3.58-.67-12.99-7.27-24.9-15.95-34.22-27.5-4.41-5.46-7.78-11.73-11.64-17.63-.61-.94-1.32-1.81-2.06-2.83-3.56,7.25-7.55,13.96-10.08,21.17-1.3,3.7-.59,8.41,.28,12.44,1.95,9.02,4.31,17.97,6.99,26.81,1.79,5.92,4.44,11.59,6.66,17.39,.46,1.21,.72,2.5,.46,3.99-12.81-12.11-21.17-26.58-24.3-43.93l-1.58-.15c-1.29,2.45-3.26,4.78-3.76,7.38-3.03,15.81-2.26,31.82-2.02,47.78,.08,5.13,1.15,10.24,1.64,15.37,.19,2.02,.03,4.07-.55,6.26-6.32-6.97-8.79-15.52-10.95-24.23-2.23-8.94-2.56-17.98-1.92-27.42-6.67,8.28-14.05,15.62-23.28,20.82-9.24,5.21-19.24,8.24-29.78,9.39l-.72-1.14c1.95-1.44,3.79-3.07,5.88-4.29,15.35-8.96,29.93-19,43.48-30.38,4.86-4.08,8.74-9.29,13.03-14.01,.36-.39,.45-1.01,.86-2.02-29.76,1.83-56.48-7.31-82.65-18.61l.25-1.29c3.78,.44,7.56,.82,11.33,1.32,10.18,1.36,20.38,2.6,30.52,4.19,14.77,2.31,29.61,1.47,44.43,1.24,3.49-.05,6.07-1.44,7.6-4.84,2.85-6.35,6.02-12.56,8.65-19.18-19.33,8.98-39.04,6.7-58.64,3.36-5.97-1.02-12.51-1.51-18.11-5.95,1.03-.37,1.56-.76,2.02-.69,12.7,1.94,25.41,.75,37.92-.99,13.98-1.94,27.38-6.17,39.41-13.89,3.29-2.11,4.4-5.16,5.08-8.42,.6-2.89,.44-5.92,.65-9.53-24.03,14.35-46.85,11.03-69.38-.68l-.05-1.27c.6-.16,1.25-.56,1.79-.45,15.45,3.07,30.8,2.7,45.62-2.59,7-2.5,13.47-6.46,20.02-10.05,1.16-.63,2.06-2.64,2.14-4.07,.39-6.8,.45-13.61,.61-20.42,0-.31-.26-.62-.69-1.59-22.75,17.09-46.6,15.22-70.86,4.83-.04-.57-.08-1.13-.12-1.7,1.74-.08,3.58-.55,5.21-.17,7.02,1.64,13.89,1.07,20.99,.16,10.18-1.32,19.46-4.74,28.06-9.8,5.99-3.53,11.37-8.09,16.85-12.38,.92-.72,1.34-2.42,1.47-3.71,1.22-12.24,2.35-24.48,3.45-36.73,.14-1.55,.02-3.13-.37-4.99-14.17,17.68-32.58,26.17-55.16,24.54-7.68-.56-15.95-.78-22.59-6.58,2.89-.27,5.78-.77,8.66-.77,9.84,0,19.12-2.61,28.24-5.81,14.75-5.17,28.05-13,40.73-21.9,2.69-1.89,3.93-4.43,4.44-7.69,.52-3.3,1.78-6.5,2.92-9.68,3.43-9.59,6.97-19.14,10.44-28.72,.1-.26-.15-.65-.4-1.61-21.79,19.03-47.13,25.67-75.48,21.91-2.41-.32-4.72-1.44-7.07-2.19,.05-.39,.09-.77,.14-1.16,2.59-.68,5.2-1.32,7.78-2.04,7.69-2.15,15.59-3.77,23-6.61,10.94-4.2,21.83-8.74,32.2-14.14,10.43-5.43,20.4-11.8,30.12-18.39,3.46-2.35,5.95-6.34,8.27-9.96,6.57-10.26,13.73-20.06,22.38-28.75,.31-.31,.51-.72,.56-1.56-11.61,3.95-22.95,8.6-35.43,9.08-12.65,.48-25.17,0-37.15-4.3-11.63-4.17-22.43-9.82-31.25-18.39,.19-.37,.38-.75,.57-1.12,.53,0,1.12-.16,1.57,.02,12.86,5.49,26.19,8.6,40.33,8.9,12.95,.27,25.83,.54,38.59-2.07,12.35-2.52,24.77-4.76,37.01-7.68,4.03-.96,7.62-3.67,11.4-5.59,9.84-5,19.68-10.02,29.51-15.04,.19-.1,.29-.36,.81-1.04-1.45-.59-2.73-1.42-4.09-1.63-11.99-1.83-23.54-5.24-34.73-9.69-16.2-6.44-30.93-15.23-44.15-26.58-12.15-10.43-22.01-22.49-29.73-36.32-.59-1.05-.9-2.25-1.74-4.39,1.66,.83,2.42,1.04,2.94,1.51,4.98,4.37,9.87,8.85,14.89,13.19,14.61,12.61,30.15,23.99,47.6,32.52,11.52,5.63,23.21,11.15,35.31,15.38,12.97,4.54,26.3,8.61,40.4,8.31,2.05-.04,4.1-.63,6.39-1.49-44.42-25.41-64.44-65.49-73.21-113.29,4.36,.59,4.15,4.02,5.31,6.06,4.87,8.57,8.81,17.69,14.16,25.94,7.41,11.44,15.59,22.43,23.85,33.31,2.87,3.79,6.99,6.67,10.49,10.01,5.81,5.55,11.2,11.59,17.45,16.61,7.48,5.99,15.43,11.51,23.69,16.4,2.69,1.59,6.98,.72,10.53,.75,2.62,.02,5.26-.22,7.87-.53,.97-.11,1.87-.74,2.81-1.13-.44-.89-.68-2-1.37-2.62-5.25-4.74-9.47-10.21-12.83-16.37-3.86-7.07-6.92-14.45-7.94-22.42-1.38-10.78-3.18-21.6-3.28-32.41-.08-9.53,1.87-19.08,3.07-28.6,.63-4.99,1.63-9.94,2.39-14.92,.57-3.75,1.19-4.34,5.1-3.92-.24,2.5-.74,5.01-.67,7.52,.37,13.59,.47,27.2,3.23,40.6,1.98,9.61,3.12,19.5,6.34,28.7,3.22,9.21,8.17,17.93,13.1,26.45,2.66,4.6,6.77,8.42,10.37,12.47,3.11,3.5,6.73,4.05,11.28,2.21,7.38-2.98,15.15-5.05,22.5-8.11,8.69-3.61,16.93-8.05,24.77-13.11"/></g></g></g></g><g><path class="k" d="M1023.49,966.15c-2.15-1.42-3.81-.92-5.44,.79-1.7,1.78-3.65,3.32-5.41,5.04-1.22,1.19-2.59,1.78-4.28,2.07-2.74,.47-5.43,1.24-8.29,1.92-.31-.85-1.14-.92-2.09-.12-.69,.58-1.3,1.26-2.16,2.1-.07-1.12,.08-2.05-.21-2.81-.52-1.36-1.44-.31-2.24-.07,.6-1.47,1.88-2.09,3.56-2.24,3.58-.32,7.15-.77,10.71-1.22,.45-.06,.91-.34,1.27-.63,3.72-2.99,7.41-6.03,11.14-9.01,1.3-1.03,2.78-.39,4.14-.11,.92,.19,1.4,.04,1.89-.79,2.96-4.99,6.36-9.64,10.89-13.35,.21-.18,.38-.41,.65-.71-2.49-1.45-4.91-2.2-7.7-1.45-1.24,.34-2.58,.31-3.88,.39-1.18,.08-2.37,.01-3.54,.15-1.08,.13-1.96-.04-2.6-.97-.08-.12-.2-.22-.31-.32-1.75-1.7-2.53-1.67-4.37,.43l.41-2.64c-.41-.19-.9-.4-1.38-.62-.42-.18-.84-.36-1.27-.54l.1-.54c1.93,.18,3.88,.23,5.77,.59,2.03,.39,3.98,1.13,6,1.6,.71,.17,1.53,.1,2.26-.05,1.01-.2,1.98-.6,2.98-.88,3.7-1.05,7.24-.83,10.42,1.52,.92,.68,1.58,.5,2.5,0,2.04-1.08,4.14-2.1,6.29-2.94,1.66-.65,3.4-.73,5.17,1.03,.49-.97,1.18-1.74,1.25-2.55,.31-3.76,.84-7.43,2.31-10.95,.26-.61-.13-1.65-.5-2.33-.65-1.21-1.57-2.27-2.26-3.46-.26-.45-.47-1.35-.24-1.58,1.2-1.19,.44-2.14-.19-3.15-.2-.32-.41-.64-.49-1.11l1.87,1.37,.91-1.23,.2,.09c-.09,.35-.13,.72-.27,1.05-.42,1.06-.1,1.62,1,1.99,.53,.18,1.13,.76,1.3,1.29,.7,2.1,1.2,4.26,1.86,6.38,.35,1.15,.33,2.14-.25,3.25-.99,1.92-1.82,3.93-2.62,5.94-.26,.65-.21,1.42-.32,2.3,1.34-.33,2.46-.68,3.6-.87,2.33-.39,4.58-.24,6.82,.72,.77,.33,1.85-.08,3.09-.17-.68-1.95-1.32-3.69-1.87-5.46-.17-.55-.09-1.18-.12-1.77,.5,.05,1.17-.08,1.47,.2,.42,.38,.86,1.1,.78,1.6-.4,2.66,.63,5.12,2.76,6.59,1.62,1.12,3.17,2.36,4.69,3.61,1.23,1.02,4.78,1.19,6.67,.34,.46-.21,1.26-.18,1.64,.1,.42,.31,.54,1.03,.78,1.58-.54,.12-1.08,.35-1.61,.33-1.91-.08-3.82-.24-5.81-.37,.01,1.69,.24,2.99,1.38,4.24,1.77,1.95,2.05,4.53,2.13,7.09,.02,.54,0,1.08,0,2.09,1.69-.6,3.49-.81,4.71-1.75,3.22-2.5,6.67-3.59,10.72-3.03,.89,.12,1.85-.35,2.77-.35,.45,0,1.19,.35,1.31,.72,.46,1.35,1.13,1.32,2.09,.56,.42-.33,.87-.62,1.43-.81-.37,.5-1.02,1-1.02,1.49,0,.56,.61,1.11,1.04,1.81-.77-.3-1.38-.7-2.01-.73-.51-.02-1.28,.26-1.5,.66-.46,.83-1.02,.82-1.73,.63-1.24-.34-2.46-.72-3.7-1.03-1.19-.3-2.23-.16-3.34,.57-2.6,1.7-5.54,2.52-8.62,2.94-2.63,.36-2.63,.43-3.24,2.45,2.22,1.34,2.33,3.56,2.07,5.83-.22,1.96-.68,3.89-.95,5.84-.06,.46,.03,1.18,.33,1.4,4.27,3.16,4.73,7.69,4.67,12.47-.01,.86,.28,1.83,.73,2.56,1.93,3.09,4.2,5.99,5.09,9.63,.07,.28,.1,.56-.09,1.02l-1.91-2.17-2.27,1.2c1.35-2.66,1.16-3.28-1.43-4.48-1.02-.47-1.45-1.16-1.7-2.21-.37-1.52-.96-2.99-1.42-4.5-.16-.51-.37-1.06-.32-1.57,.27-3.04-.85-5.5-3.12-7.6-.17,.2-.42,.37-.51,.6-2.23,5.48-5.68,10.15-9.61,14.49-.67,.74-.84,1.31-.26,2.16,1.05,1.53,1.18,3.09,.4,4.88-1.73,3.97-3.29,8.01-4.88,12.04-.19,.47-.22,1.07-.13,1.57,.65,3.49,1.32,6.97,2.04,10.44,.31,1.49,.18,2.83-.94,4.08-.34-.8,.66-2.17-.87-2.24-.82-.04-1.66,.36-2.74,.63,.55-1.09,1.03-1.92,1.38-2.81,.45-1.13-.02-1.8-.86-1.84-.13-2.58,0-5.06-.45-7.44-.47-2.54-.06-4.74,1.11-6.95,1.09-2.05,1.93-4.22,3.01-6.27,.85-1.63,.52-2.9-.86-4.14-11.89,9.25-24.16,10.79-36.75,1.41-5.39-4.01-8.75-9.44-10.24-15.99-1.48-6.5-.69-12.84,1.64-18.91Zm36.07-1.03c2.09,1.09,4.11,2.36,6.28,3.23,2.84,1.15,4.59-.06,4.9-3.11,.06-.58,.04-1.18-.04-1.77-.73-5.94-5.93-10.3-12.3-10.34-4.01-.03-5.65,2.58-3.87,6.19,1.16,2.37,3.04,4.09,5.04,5.8Zm5.94,12.25c-2.87-1.76-5.9-1.88-8.36-.14-3.03,2.14-3.61,5.57-1.03,7.75,2.61,2.21,5.8,3.2,9.25,2.49,2.9-.6,4.27-3.35,2.99-6.05-.69-1.47-1.88-2.7-2.85-4.05Zm-18.27-5.38c1.82-2.47,1.81-5.55-.4-7.67-1.27-1.21-2.93-2.24-4.6-2.75-3.82-1.17-6.96,1.77-5.99,5.64,.46,1.83,1.51,3.65,2.7,5.14,2.33,2.92,6.06,2.65,8.29-.37Zm-.23,30.22c.77,.3,1.52,.73,2.31,.87,2.61,.46,6.85-1.57,8.19-3.83,.69-1.17,.78-2.37-.03-3.47-2.7-3.67-7.82-4.78-11.28-.79-2,2.31-1.59,5.3,.8,7.23Zm-15.68-26.09c-2.68-1.96-4.78-1.72-6.17,.87-1.28,2.39-1.57,5-.69,7.58,.63,1.86,2.19,2.89,4.08,3.24,1.75,.32,3.17-.42,4.27-1.77,2.62-3.22,1.98-7.37-1.5-9.92Zm6.95-27.14c-1.18,1.61-2.11,2.85-1.22,4.34,.95,1.58,2.57,1.71,4.2,1.37,3.29-.69,5.87-2.5,7.75-5.26,.71-1.03,1.19-2.22,.39-3.45-.79-1.23-2.03-1.49-3.38-1.32-3.37,.42-5.92,2.26-7.76,4.33Zm38.74,21.92l-.35-.12c-.63,1.9-1.47,3.75-1.82,5.7-.25,1.39-.1,2.99,.33,4.34,.8,2.46,3.1,2.88,4.84,.97,.75-.82,1.34-1.84,1.8-2.86,1.08-2.38,1.63-4.87,1.01-7.48-.3-1.26-.97-2.3-2.35-2.59-1.28-.27-2.16,.45-2.93,1.34-.19,.22-.35,.47-.53,.71Z"/><path class="m" d="M1059.56,965.13c-2-1.71-3.87-3.43-5.04-5.8-1.78-3.61-.14-6.21,3.87-6.19,6.38,.04,11.58,4.4,12.3,10.34,.07,.58,.09,1.18,.04,1.77-.31,3.05-2.05,4.26-4.9,3.11-2.17-.88-4.19-2.14-6.28-3.23Z"/><path class="m" d="M1065.5,977.38c.96,1.34,2.15,2.58,2.85,4.05,1.28,2.7-.09,5.45-2.99,6.05-3.44,.72-6.63-.27-9.25-2.49-2.58-2.18-2-5.62,1.03-7.75,2.46-1.74,5.49-1.62,8.36,.14Z"/><path class="m" d="M1047.24,972c-2.22,3.02-5.95,3.29-8.29,.37-1.19-1.49-2.24-3.31-2.7-5.14-.97-3.87,2.17-6.81,5.99-5.64,1.67,.51,3.33,1.54,4.6,2.75,2.21,2.11,2.21,5.2,.4,7.67Z"/><path class="m" d="M1047,1002.22c-2.4-1.92-2.81-4.92-.8-7.23,3.46-3.98,8.57-2.87,11.28,.79,.81,1.1,.72,2.3,.03,3.47-1.34,2.26-5.57,4.3-8.19,3.83-.8-.14-1.54-.57-2.31-.87Z"/><path class="m" d="M1031.32,976.12c3.48,2.55,4.12,6.7,1.5,9.92-1.1,1.35-2.52,2.1-4.27,1.77-1.9-.35-3.45-1.39-4.08-3.24-.88-2.58-.6-5.18,.69-7.58,1.39-2.59,3.48-2.84,6.17-.87Z"/><path class="m" d="M1038.27,948.98c1.84-2.07,4.38-3.91,7.76-4.33,1.35-.17,2.58,.1,3.38,1.32,.8,1.23,.31,2.42-.39,3.45-1.89,2.75-4.46,4.57-7.75,5.26-1.63,.34-3.25,.21-4.2-1.37-.89-1.48,.03-2.73,1.22-4.34Z"/><path class="m" d="M1077,970.91c.18-.24,.33-.49,.53-.71,.77-.89,1.65-1.61,2.93-1.34,1.38,.29,2.05,1.33,2.35,2.59,.62,2.61,.08,5.11-1.01,7.48-.46,1.02-1.05,2.04-1.8,2.86-1.74,1.91-4.04,1.49-4.84-.97-.44-1.35-.58-2.95-.33-4.34,.35-1.95,1.19-3.8,1.82-5.7l.35,.12Z"/></g><g><path class="n" d="M1815.36,824.37c-.58,.71-1.42,.98-2.26,1.15-.6,.09-1.2,.16-1.89,.24,.16,.18,.27,.29,.38,.42,.82,.91,.75,1.93-.31,2.46-.98,.49-2.04,.89-3.09,1.09-5.82,1.02-11.48,.42-16.9-1.95-.6-.24-1.18-.53-1.51-1.18l-2.2,.02c.53,.82,1.02,1.67,1.53,2.49,.07,.09,.09,.2,.11,.31,.27,.78,.44,1.55-.18,2.24-.64,.75-1.51,.8-2.4,.62-1.6-.36-2.93-1.24-4.17-2.24-.2-.13-.36-.29-.49-.38-1,.67-1.95,1.38-2.95,1.95-1.49,.89-3.13,1.42-4.86,1.55-.51,.04-1.07,0-1.55-.16-.95-.31-1.38-1.04-1.07-2,.22-.62,.64-1.2,1.04-1.75,.18-.29,.49-.49,.73-.71,0-.04-.02-.09-.04-.13-.73,0-1.44,.02-2.15,0-.29-.02-.6-.07-.89-.18-.75-.24-1.15-.84-.98-1.44l-1.98,.02c.27,.8-.09,1.6-.93,1.89-.89,.27-1.84,.27-2.75,.38-.22,.02-.42-.02-.75-.04,.13,.27,.22,.42,.29,.62,.27,.73,.62,1.44,.73,2.2,.2,1.09-.51,1.89-1.62,2-1.98,.22-3.75-.42-5.31-1.6-.87-.64-1.62-1.47-2.42-2.22-.11-.11-.22-.24-.36-.4-.49,.58-.93,1.13-1.42,1.62-.89,.89-1.89,1.6-3.13,1.93-1.42,.38-2.42-.29-2.64-1.73-.24-1.53,.29-2.89,1.02-4.2,.04-.09,.09-.18,.16-.24l-2.35,.02c-.2,.18-.38,.4-.6,.47-1.33,.51-2.64,1.07-4,1.4-3.71,.93-7.48,1.53-11.32,1.27-1.31-.09-2.64-.44-3.95-.71-.27-.07-.53-.24-.78-.42-.98-.67-1.07-1.73-.29-2.6,.18-.2,.36-.38,.62-.62-.31,0-.51-.02-.71,0-1.47,.07-2.95,.13-4.37-.29l-.27-.07c-1.75-.64-2.02-2.04-.62-3.29,1.13-1.04,2.58-1.44,4.02-1.82,1.64-.42,3.33-.6,5.04-.6,.16,0,.31-.02,.58-.04-.47-.51-.87-.95-1.24-1.4-2.44-3.04-3.84-6.48-3.8-10.41,.04-2.91,.82-5.62,2.89-7.77,.71-.75,1.62-1.29,2.49-1.87,.27-.18,.47-.31,.53-.64,.84-3.33,2.24-6.42,4.28-9.17,1.49-2.02,3.22-3.77,5.08-5.4,.31-.27,.58-.6,.73-.95,1.02-2.35,2.31-4.55,4.04-6.46,.27-.29,.16-.51,.02-.8-1.44-3.26-1.64-6.51,.47-9.55,2.22-3.2,6.66-5.11,11.32-2.75,1.11,.56,2.04,1.38,3.09,2.06,.2,.13,.51,.29,.73,.22,2-.49,4.04-.71,6.11-.78,3.42-.13,6.82,.04,10.21,.67,.36,.07,.58-.02,.82-.29,2.75-2.89,6.46-3.55,10.12-2.04,3.6,1.49,5.22,4.95,5,8.61-.07,1.38-.36,2.73-1.04,3.95-.07,.13-.02,.4,.07,.51,1.55,1.84,2.71,3.93,3.53,6.19,.04,.13,.16,.27,.27,.36,2.95,2.24,5.13,5.13,6.99,8.28,1.38,2.31,2.42,4.75,3.06,7.37,.04,.16,.2,.36,.36,.38,3.11,.84,4.8,3.06,5.68,5.97,1.02,3.35,.4,6.59-.82,9.77-.73,1.95-1.84,3.66-3.2,5.24-.09,.11-.18,.2-.27,.33-.02,.02,0,.07-.02,.18,.22,.02,.42,.04,.64,.04,2.31,.2,4.57,.56,6.71,1.53,.42,.2,.82,.47,1.18,.78,.8,.69,.84,1.64,.18,2.46Z"/><g><path class="p" d="M1794.73,783.75c.33,2.35,.91,4.52,.09,6.72-.11-.92-.19-1.85-.32-2.77-.62-4.41-2.22-8.4-5.1-11.83-.33-.4-.41-.71-.07-1.16,.64-.86,.87-1.89,.99-2.94,.27-2.37-.07-4.61-1.7-6.48-2.97-3.42-8.59-3.37-11.64,.1-.37,.42-.7,.55-1.27,.45-4.76-.87-9.53-1.04-14.33-.33-.73,.11-1.46,.27-2.17,.49-.48,.15-.78,.03-1.13-.3-1.47-1.36-3.14-2.36-5.1-2.82-4.26-.98-9.21,2.21-9.25,7.2-.02,1.75,.29,3.42,1.22,4.93,.23,.38,.1,.65-.16,.95-2.44,2.88-4.29,6.11-5.41,9.72-.41,1.31-.64,2.68-.98,4.02-.09,.38-.27,.73-.4,1.1l-.23-.03c-.02-.26-.08-.52-.05-.77,.24-1.57,.51-3.14,.76-4.71,.01-.08,.03-.17,.08-.37-.18,.13-.29,.19-.38,.28-5.95,5.7-8.72,12.72-8.38,20.91,.21,5.03,2.3,9.31,5.98,12.74,.93,.87,2.13,1.45,3.2,2.16,.14,.09,.3,.17,.44,.25l-.04,.14c-.27-.06-.55-.11-.81-.19-1.94-.64-3.49-1.87-4.87-3.31-3.75-3.95-5.22-8.74-5.06-14.1,.04-1.18,.21-2.36,.32-3.54,.02-.22,.05-.44,.08-.67l-.14-.1c-.4,.33-.83,.62-1.2,.98-2.04,2.01-2.86,4.52-2.92,7.3-.1,4.74,1.87,8.61,5.22,11.82,2.85,2.72,6.31,4.19,10.17,4.76,.25,.04,.49,.09,.73,.13,.05,0,.1,.04,.3,.12-.34,.07-.54,.13-.75,.14-1.91,.1-3.72-.41-5.5-1.03-1.7-.59-3.24-1.49-4.69-2.56-.24-.18-.57-.3-.87-.31-2.46-.09-4.89,.13-7.23,.93-.87,.3-1.7,.79-2.45,1.32-.67,.47-.54,1.12,.25,1.39,.64,.22,1.35,.41,2.02,.39,2.3-.06,4.59-.2,6.89-.33,.8-.04,1.6-.11,2.39-.17l.02,.18c-.67,.17-1.35,.34-2.02,.5-1.21,.3-2.39,.69-3.42,1.4-.42,.29-.92,.59-.83,1.2,.08,.57,.62,.8,1.09,.89,1.28,.26,2.57,.54,3.87,.62,4.09,.23,8.09-.42,12.04-1.4,1.06-.26,2.11-.55,3.17-.83l.09,.14c-.2,.16-.38,.38-.61,.47-1.32,.49-2.63,1.06-4,1.4-3.71,.92-7.47,1.52-11.31,1.25-1.33-.09-2.64-.44-3.96-.71-.28-.06-.55-.25-.79-.42-.96-.67-1.07-1.74-.28-2.6,.17-.19,.36-.36,.62-.62-.31,0-.51,0-.71,0-1.47,.07-2.94,.14-4.38-.28-.08-.02-.17-.04-.25-.07-1.75-.65-2.02-2.04-.63-3.29,1.15-1.03,2.58-1.44,4.03-1.81,1.65-.43,3.34-.61,5.05-.61,.15,0,.31-.02,.56-.04-.45-.51-.85-.94-1.22-1.4-2.45-3.03-3.86-6.47-3.8-10.4,.04-2.92,.81-5.62,2.88-7.78,.71-.74,1.63-1.28,2.49-1.86,.27-.18,.46-.32,.54-.64,.83-3.34,2.24-6.41,4.28-9.18,1.48-2,3.22-3.76,5.1-5.4,.29-.26,.56-.6,.71-.96,1.03-2.35,2.32-4.54,4.05-6.45,.27-.3,.15-.51,.02-.8-1.43-3.26-1.64-6.51,.47-9.55,2.21-3.19,6.66-5.1,11.33-2.75,1.09,.55,2.04,1.38,3.07,2.06,.21,.14,.52,.29,.74,.23,2-.51,4.04-.72,6.1-.79,3.43-.13,6.83,.05,10.21,.67,.36,.07,.58-.02,.83-.28,2.75-2.89,6.46-3.56,10.12-2.05,3.61,1.49,5.21,4.95,5.01,8.6-.08,1.39-.37,2.73-1.06,3.97-.07,.12-.03,.39,.07,.5,1.56,1.85,2.71,3.93,3.53,6.2,.05,.14,.16,.28,.28,.37,2.95,2.23,5.12,5.12,6.98,8.26,1.37,2.31,2.42,4.76,3.06,7.38,.04,.15,.2,.35,.35,.39,3.11,.84,4.81,3.06,5.69,5.97,1.01,3.34,.39,6.59-.82,9.76-.74,1.94-1.84,3.67-3.2,5.23-.09,.11-.18,.21-.27,.33-.02,.02-.01,.07-.02,.18,.22,.02,.43,.05,.65,.06,2.31,.18,4.58,.53,6.69,1.52,.43,.2,.84,.47,1.19,.78,.79,.69,.83,1.65,.17,2.46-.59,.72-1.41,.98-2.27,1.15-.58,.11-1.18,.16-1.87,.26l.37,.41c.82,.91,.76,1.93-.32,2.48-.96,.49-2.02,.88-3.09,1.07-5.81,1.03-11.46,.42-16.9-1.94-.59-.26-1.17-.53-1.5-1.17,1.04,.33,2.08,.66,3.12,.98,5.07,1.52,10.22,1.88,15.44,.96,.79-.14,1.56-.45,2.31-.75,.52-.21,.59-.6,.14-.94-.47-.37-1.04-.71-1.61-.85-1.04-.25-2.13-.33-3.19-.5-.37-.06-.73-.15-1.09-.22v-.21c.31-.05,.61-.14,.91-.15,1.79-.05,3.58-.06,5.36-.13,.7-.03,1.4-.18,2.1-.31,.29-.06,.57-.19,.83-.33,.9-.51,.94-1.18,.09-1.74-1.05-.7-2.25-1.05-3.47-1.25-1.55-.25-3.12-.37-4.69-.55-.43-.05-.77,.09-1.12,.36-3.37,2.6-7.17,4.02-11.44,4.11-.42,0-.84-.06-1.25-.09v-.17c.42-.06,.86-.11,1.29-.17,4.03-.56,7.72-1.95,10.88-4.56,2.96-2.45,4.71-5.65,5.54-9.38,.46-2.08,.6-4.17,0-6.25-.61-2.08-1.73-3.79-3.65-4.89-.27-.15-.57-.25-.97-.42,.05,.4,.07,.67,.11,.94,.67,4.1,.75,8.18-.38,12.22-.7,2.52-1.89,4.76-3.78,6.61-.76,.74-1.65,1.27-2.65,1.63-.19,.07-.4,.1-.6,.15l-.09-.13c.09-.05,.18-.1,.27-.15,3.15-1.84,4.87-4.7,5.81-8.11,1.03-3.74,.98-7.53,.42-11.33-.96-6.57-4.06-12.04-8.64-16.75-.12-.12-.25-.23-.5-.45Z"/><path class="p" d="M1756.1,805.8c.07,.59,.18,1.18,.22,1.77,.16,2.74,.42,5.47,1.07,8.15,.52,2.16,1.23,4.25,2.22,6.24,.24,.47,.55,.71,1.05,.86,1.85,.53,3.6,1.29,5.06,2.58,.33,.29,.62,.64,.84,1.01,.55,.92,.26,1.99-.76,2.31-.87,.27-1.83,.27-2.76,.38-.2,.02-.42-.02-.74-.04,.13,.26,.23,.43,.29,.62,.26,.73,.61,1.44,.73,2.2,.18,1.09-.52,1.89-1.62,2.01-1.99,.22-3.75-.44-5.31-1.6-.87-.65-1.62-1.47-2.42-2.22-.12-.12-.23-.25-.36-.4-.49,.56-.93,1.11-1.43,1.61-.89,.89-1.89,1.6-3.13,1.93-1.42,.37-2.42-.27-2.65-1.72-.24-1.54,.3-2.89,1.02-4.2,.25-.45,.54-.87,.8-1.28-.68-.78-1.39-1.49-1.99-2.3-1.84-2.46-2.88-5.27-3.42-8.26-.15-.81-.41-1.46-1.01-2.1-1.37-1.46-2.14-3.27-2.51-5.24-.04-.19,0-.4,.05-.62,.97,1.69,1.53,3.61,3.03,5.19-.1-2.72-.2-5.31,1.16-7.64l.15,.02c-.02,.19-.04,.39-.07,.58-.83,5.66-.13,11.08,2.62,16.16,.72,1.33,1.67,2.5,2.8,3.51,.54,.49,.54,.6,.1,1.19-.8,1.05-1.46,2.18-1.71,3.5-.09,.46-.1,.96-.03,1.42,.11,.79,.58,1.13,1.31,.86,.8-.3,1.62-.68,2.25-1.23,.78-.69,1.41-1.57,2.04-2.41,.4-.52,.64-.59,1.06-.06,1.21,1.51,2.59,2.82,4.37,3.63,.96,.44,1.97,.69,3.04,.58,.7-.08,.99-.43,.74-1.09-.37-.95-.85-1.86-1.32-2.76-.34-.66-.74-1.29-1.1-1.93-.09-.16-.13-.35-.19-.53l.15-.14c.37,.29,.74,.57,1.1,.86,.33,.27,.63,.73,.99,.79,1.18,.21,2.39,.37,3.56-.12,.45-.19,.59-.56,.29-.94-.39-.49-.84-.96-1.35-1.32-1.36-.96-2.9-1.53-4.49-2-.3-.09-.64-.33-.8-.6-1.39-2.27-2.22-4.77-2.79-7.36-.66-3.01-.9-6.05-.53-9.13,.03-.23,.11-.46,.16-.69h.22Z"/><path class="p" d="M1776.09,827.47c-.35,.22-.7,.45-1.06,.66-.94,.54-1.84,1.14-2.48,2.04-.34,.47-.68,1.02-.38,1.57,.29,.53,.94,.43,1.46,.38,2.74-.26,5.11-1.36,7.12-3.23,.59-.54,.59-.56,1.21-.03,1.12,.97,2.27,1.87,3.71,2.31,.38,.12,.8,.16,1.2,.16,.93-.02,1.27-.51,1.01-1.4-.35-1.2-1.06-2.19-1.82-3.15-.71-.9-.8-.76,.02-1.79,2.43-3.04,4.29-6.37,4.99-10.25,.36-2,.3-4.02,.2-6.04-.04-.74-.04-1.49-.04-2.23,0-.19,.07-.39,.2-.58,.72,1.65,.75,3.4,.92,5.16,.85-1.13,1.38-2.42,1.86-3.73l.17,.04c-.04,.45,0,.91-.12,1.34-.39,1.42-.86,2.81-1.88,3.94-.1,.11-.16,.28-.16,.43-.23,4.2-1.96,7.82-4.35,11.17-.33,.46-.68,.91-1.05,1.33-.21,.25-.19,.41-.01,.68,.62,.94,1.19,1.92,1.78,2.88,.05,.09,.08,.2,.11,.3,.26,.78,.43,1.56-.19,2.26-.65,.74-1.52,.79-2.4,.61-1.6-.34-2.92-1.24-4.18-2.23-.18-.14-.36-.29-.48-.39-1.01,.68-1.94,1.37-2.94,1.96-1.49,.89-3.13,1.42-4.87,1.56-.52,.04-1.07-.02-1.56-.17-.96-.3-1.38-1.04-1.05-1.99,.22-.63,.64-1.2,1.02-1.76,.19-.28,.5-.48,.75-.71l-.06-.12c-.71,0-1.43,.02-2.14,0-.3,0-.6-.07-.88-.17-1.03-.34-1.36-1.27-.64-2.07,.55-.62,1.25-1.17,1.99-1.54,1.19-.61,2.47-1.06,3.72-1.54,.39-.15,.66-.33,.85-.72,1.14-2.39,1.83-4.91,2.27-7.5,.46-2.7,.8-5.43,1.2-8.14,.02-.16,.08-.32,.11-.48h.21c.06,.5,.2,1.01,.16,1.51-.13,2.05-.24,4.1-.5,6.14-.32,2.6-.91,5.16-1.95,7.58-.06,.13-.12,.26-.17,.39-.46,1.18-1.16,1.98-2.5,2.32-1.18,.3-2.28,.93-3.39,1.48-.4,.2-.76,.53-1.07,.85-.45,.47-.37,.79,.27,.84,1.02,.09,2.04,.09,3.07,.06,.71-.02,1.41-.16,2.11-.22,.2-.02,.4,.04,.6,.06l.05,.19Z"/><path class="p" d="M1784.05,782.89c-1.84-.05-3.49-.73-5.09-1.53-1.58-.79-3.13-1.65-4.72-2.43-.61-.3-1.29-.49-1.95-.69-1.04-.3-2.08-.23-3.05,.26-1.35,.68-2.65,.7-4.01-.02-.99-.53-2.06-.42-3.11-.11-1.96,.56-3.7,1.59-5.45,2.59-2.11,1.2-4.31,2.11-6.8,1.84-.83-.09-1.63-.43-2.43-.7-.4-.14-.51-.5-.31-.87,.2-.36,.54-.39,.87-.19,1.9,1.17,3.89,1,5.82,.2,1.45-.6,2.81-1.42,4.2-2.15,1.5-.8,3-1.59,4.71-1.89,1.16-.2,2.25-.05,3.3,.48,.7,.35,1.45,.47,2.15,.1,2.37-1.26,4.63-.75,6.86,.37,1.82,.91,3.6,1.89,5.44,2.78,1.15,.56,2.37,.93,3.68,.9,.83-.02,1.56-.27,2.15-.88,.29-.3,.6-.38,.93-.1,.3,.25,.24,.63-.12,.97-.86,.81-1.91,1.12-3.07,1.09Z"/><path class="p" d="M1782.45,776.75c-3.44,.04-6.15-2.49-6.17-5.75-.02-3.27,2.68-5.98,5.97-6.02,3.46-.03,6.06,2.35,6.1,5.59,.04,3.51-2.47,6.14-5.9,6.18Zm-.07-1.05c2.84,0,4.92-2.11,4.92-5.01,0-2.68-2.08-4.64-4.95-4.66-2.75-.02-5.03,2.24-5.02,4.99,.01,2.61,2.24,4.68,5.04,4.68Z"/><path class="p" d="M1745.91,770.63c-.05-3.2,2.45-5.59,5.91-5.64,3.35-.05,6.09,2.57,6.15,5.87,.06,3.23-2.59,5.77-6.09,5.82-3.48,.06-5.91-2.41-5.97-6.06Zm6.39-4.59c-1.69,.03-2.87,.35-3.85,1.2-1.6,1.4-1.79,3.19-1.23,5.1,.55,1.84,1.81,2.97,3.74,3.24,2.34,.32,4.56-.76,5.48-2.62,1.56-3.14-.96-6.96-4.15-6.92Z"/><path class="p" d="M1775.67,792.41c-.16,.53-.51,.92-.95,1.25-1.78,1.34-3.81,2-6,2.19-3.27,.28-6.38-.23-9.25-1.91-.76-.45-1.44-.99-1.93-1.74l.1-.16c.32,.15,.65,.26,.94,.45,1.24,.81,2.55,1.46,3.98,1.85,3.62,.97,7.2,1.04,10.68-.56,.54-.25,1.03-.61,1.54-.93,.26-.17,.51-.36,.76-.55l.13,.1Z"/><path class="p" d="M1765.86,772.48c-.3,.5-.53,1.01-.87,1.44-.21,.27-.59,.32-.91,.07-.29-.23-.37-.55-.18-.85,.25-.41,.54-.82,.88-1.16,.13-.12,.47-.12,.67-.05,.15,.05,.23,.3,.4,.55Z"/><path class="p" d="M1768.53,772.55c.17-.24,.25-.5,.42-.57,.17-.07,.5-.03,.62,.1,.3,.33,.56,.72,.76,1.13,.15,.3,.07,.63-.27,.82-.35,.19-.71,.11-.9-.18-.26-.38-.41-.84-.62-1.29Z"/><path class="p" d="M1781.79,768.99c.81,.15,1.79,.3,2.76,.51,.3,.06,.6,.23,.85,.42,.62,.46,.65,1.19,.04,1.66-.33,.25-.73,.45-1.13,.55-1.46,.37-2.88,.2-4.25-.42-.1-.04-.19-.1-.28-.16-.47-.32-.88-.7-.75-1.34,.13-.64,.62-.92,1.21-1.03,.45-.08,.91-.11,1.55-.18Z"/><path class="p" d="M1752.21,769.03c.81,.1,1.5,.11,2.14,.28,1.04,.28,1.25,1.29,.42,1.98-1.14,.94-2.51,1.08-3.91,.97-.55-.04-1.11-.22-1.62-.44-.49-.2-.85-.59-.83-1.18,.02-.59,.44-.9,.93-1.03,.99-.25,2-.41,2.88-.59Z"/></g></g><g><path class="l" d="M129.29,107.61c1.22,1.12,2.32,.97,3.52,.06,1.26-.96,2.65-1.72,3.94-2.64,.89-.63,1.82-.86,2.92-.87,1.78-.02,3.56-.23,5.44-.36,.11,.57,.63,.7,1.31,.29,.5-.3,.95-.66,1.58-1.11-.07,.72-.26,1.29-.16,1.8,.19,.91,.88,.35,1.41,.27-.53,.87-1.4,1.13-2.48,1.05-2.3-.17-4.6-.24-6.9-.32-.29-.01-.61,.12-.87,.27-2.66,1.51-5.31,3.06-7.97,4.56-.93,.52-1.8-.03-2.63-.35-.56-.21-.88-.17-1.28,.31-2.38,2.86-5.01,5.45-8.26,7.33-.15,.09-.28,.22-.49,.38,1.43,1.17,2.88,1.9,4.73,1.7,.82-.09,1.67,.07,2.5,.15,.75,.07,1.5,.24,2.26,.27,.7,.03,1.23,.23,1.55,.88,.04,.08,.1,.16,.16,.23,.93,1.25,1.43,1.32,2.81,.17l-.53,1.63c.24,.16,.53,.35,.81,.53,.25,.16,.5,.31,.75,.47l-.12,.33c-1.2-.31-2.43-.54-3.59-.96-1.24-.45-2.41-1.12-3.63-1.62-.44-.18-.96-.22-1.44-.2-.66,.03-1.32,.18-1.98,.26-2.45,.28-4.66-.21-6.43-2.03-.51-.52-.95-.48-1.58-.26-1.4,.48-2.83,.9-4.28,1.21-1.12,.24-2.23,.11-3.16-1.18-.41,.56-.92,.98-1.05,1.49-.58,2.35-1.29,4.62-2.58,6.69-.22,.36-.08,1.05,.08,1.53,.29,.83,.76,1.6,1.07,2.42,.12,.31,.16,.9,0,1.02-.88,.63-.5,1.31-.2,2.01,.09,.22,.2,.44,.2,.75l-1.04-1.06-.7,.69-.12-.08c.09-.21,.16-.44,.28-.64,.38-.63,.23-1.01-.43-1.36-.32-.17-.63-.6-.69-.95-.23-1.4-.32-2.82-.52-4.23-.11-.76,.01-1.39,.49-2.03,.82-1.11,1.55-2.3,2.26-3.49,.23-.38,.28-.88,.44-1.42-.88,.07-1.62,.18-2.37,.18-1.51,0-2.92-.32-4.24-1.15-.45-.29-1.18-.14-1.97-.21,.23,1.31,.46,2.47,.62,3.65,.05,.37-.07,.76-.11,1.13-.31-.08-.75-.07-.91-.27-.23-.28-.43-.78-.33-1.09,.52-1.64,.12-3.31-1.07-4.46-.91-.87-1.76-1.82-2.6-2.77-.68-.77-2.9-1.24-4.19-.9-.31,.08-.82-.02-1.03-.23-.23-.24-.23-.71-.34-1.08,.35-.02,.72-.11,1.05-.04,1.2,.24,2.39,.54,3.64,.83,.16-1.07,.15-1.92-.44-2.83-.92-1.42-.84-3.08-.62-4.7,.05-.34,.11-.68,.21-1.32-1.13,.21-2.29,.15-3.16,.63-2.3,1.25-4.59,1.59-7.09,.82-.55-.17-1.2,.03-1.79-.06-.29-.05-.72-.35-.76-.59-.16-.9-.58-.95-1.26-.57-.3,.17-.61,.3-.99,.37,.28-.28,.75-.53,.8-.84,.05-.35-.27-.76-.47-1.25,.46,.27,.8,.58,1.2,.67,.32,.07,.84-.04,1.02-.26,.37-.48,.73-.41,1.16-.22,.75,.34,1.48,.71,2.24,1.03,.72,.31,1.39,.33,2.17-.02,1.82-.81,3.76-1.03,5.75-.98,1.7,.04,1.71,0,2.3-1.22-1.27-1.08-1.11-2.49-.71-3.9,.34-1.22,.83-2.39,1.2-3.6,.09-.28,.1-.75-.06-.92-2.38-2.44-2.21-5.35-1.68-8.37,.09-.54,.01-1.19-.2-1.7-.9-2.15-2.04-4.22-2.24-6.61-.01-.18,0-.37,.16-.63l.99,1.57,1.56-.52c-1.13,1.54-1.07,1.96,.45,2.98,.6,.4,.8,.88,.85,1.57,.08,1,.3,1.99,.44,2.99,.05,.34,.12,.71,.04,1.02-.48,1.9-.02,3.57,1.2,5.13,.13-.11,.3-.19,.39-.33,1.97-3.24,4.63-5.84,7.56-8.19,.5-.4,.67-.74,.39-1.34-.51-1.08-.43-2.08,.25-3.13,1.5-2.34,2.9-4.73,4.32-7.12,.17-.28,.25-.65,.24-.98-.05-2.27-.12-4.54-.22-6.81-.04-.98,.17-1.81,1.01-2.49,.13,.54-.64,1.31,.32,1.51,.51,.11,1.09-.06,1.8-.12-.46,.64-.85,1.11-1.16,1.64-.4,.67-.17,1.14,.36,1.25-.18,1.64-.51,3.2-.48,4.76,.04,1.66-.44,3-1.42,4.29-.9,1.18-1.65,2.47-2.55,3.66-.71,.94-.62,1.78,.12,2.7,8.47-4.64,16.39-4.36,23.4,2.86,3,3.09,4.57,6.87,4.84,11.17,.27,4.27-.87,8.2-2.97,11.8Zm-22.93-3.04c-1.21-.9-2.36-1.91-3.64-2.69-1.68-1.02-2.91-.43-3.42,1.47-.1,.36-.14,.75-.16,1.12-.15,3.83,2.7,7.12,6.73,7.8,2.54,.43,3.84-1.05,3.08-3.52-.49-1.62-1.5-2.9-2.59-4.19Zm-2.51-8.36c1.64,1.41,3.54,1.79,5.28,.95,2.14-1.04,2.85-3.16,1.44-4.8-1.43-1.67-3.34-2.62-5.6-2.52-1.89,.08-3.04,1.68-2.51,3.52,.29,1,.91,1.9,1.39,2.85Zm11.01,5.27c-1.4,1.38-1.71,3.33-.53,4.89,.68,.9,1.62,1.71,2.63,2.21,2.3,1.13,4.59-.41,4.37-2.96-.1-1.21-.58-2.46-1.18-3.53-1.18-2.09-3.57-2.3-5.28-.61Zm3.24-19.1c-.46-.27-.88-.62-1.38-.79-1.61-.56-4.5,.29-5.57,1.59-.56,.67-.74,1.42-.34,2.2,1.33,2.6,4.46,3.82,7.05,1.66,1.5-1.25,1.55-3.19,.23-4.65Zm7.25,18.11c1.5,1.52,2.85,1.58,3.99,.08,1.06-1.38,1.5-3,1.21-4.73-.21-1.24-1.09-2.06-2.25-2.47-1.08-.38-2.05-.06-2.89,.69-1.98,1.77-2.01,4.46-.06,6.43Zm-7.17,16.46c.91-.9,1.63-1.59,1.21-2.62-.44-1.09-1.45-1.35-2.52-1.3-2.15,.1-3.97,.98-5.44,2.53-.55,.58-.98,1.28-.6,2.14,.38,.86,1.13,1.15,2,1.18,2.18,.08,3.98-.82,5.35-1.94Zm-22.27-17.83l.21,.11c.59-1.14,1.31-2.23,1.73-3.42,.3-.85,.37-1.88,.23-2.78-.25-1.64-1.67-2.14-2.96-1.11-.56,.44-1.04,1.03-1.43,1.63-.93,1.39-1.53,2.92-1.4,4.63,.06,.83,.38,1.55,1.22,1.88,.78,.3,1.41-.07,1.99-.55,.15-.12,.27-.26,.41-.4Z"/><path class="m" d="M106.36,104.56c1.09,1.29,2.1,2.57,2.59,4.19,.75,2.47-.55,3.94-3.08,3.52-4.03-.68-6.87-3.97-6.73-7.8,.01-.38,.06-.76,.16-1.12,.51-1.9,1.74-2.48,3.42-1.47,1.29,.78,2.43,1.78,3.64,2.69Z"/><path class="m" d="M103.85,96.21c-.47-.95-1.1-1.85-1.39-2.85-.53-1.84,.62-3.44,2.51-3.52,2.25-.1,4.17,.85,5.6,2.52,1.41,1.65,.69,3.76-1.44,4.8-1.74,.85-3.64,.46-5.28-.95Z"/><path class="m" d="M114.86,101.48c1.71-1.68,4.1-1.48,5.28,.61,.6,1.07,1.08,2.32,1.18,3.53,.22,2.55-2.07,4.09-4.37,2.96-1-.49-1.95-1.31-2.63-2.21-1.18-1.56-.87-3.51,.53-4.89Z"/><path class="m" d="M118.1,82.38c1.32,1.46,1.27,3.4-.23,4.65-2.6,2.17-5.72,.94-7.05-1.66-.4-.78-.22-1.53,.34-2.2,1.08-1.29,3.96-2.15,5.57-1.59,.49,.17,.92,.52,1.38,.79Z"/><path class="m" d="M125.35,100.5c-1.94-1.97-1.92-4.66,.06-6.43,.84-.74,1.81-1.07,2.89-.69,1.16,.41,2.04,1.23,2.25,2.47,.29,1.72-.15,3.34-1.21,4.73-1.15,1.5-2.49,1.44-3.99-.08Z"/><path class="m" d="M118.18,116.96c-1.37,1.12-3.17,2.02-5.35,1.94-.87-.03-1.62-.33-2-1.18-.38-.86,.05-1.56,.6-2.14,1.47-1.55,3.29-2.44,5.44-2.53,1.07-.05,2.08,.2,2.52,1.3,.41,1.03-.3,1.72-1.21,2.62Z"/><path class="m" d="M95.91,99.12c-.14,.13-.26,.28-.41,.4-.58,.48-1.21,.85-1.99,.55-.84-.33-1.16-1.05-1.22-1.88-.13-1.71,.47-3.24,1.4-4.63,.4-.6,.88-1.18,1.43-1.63,1.29-1.03,2.71-.53,2.96,1.11,.14,.9,.07,1.92-.23,2.78-.42,1.2-1.14,2.29-1.73,3.42l-.21-.11Z"/></g></g></g></svg>