<?xml version="1.0" encoding="UTF-8"?><svg xmlns="http://www.w3.org/2000/svg" viewBox="0 0 139.33 103.21"><defs><style>.d{fill:#acc968;}.e{fill:#112313;}</style></defs><g id="a"/><g id="b"><g id="c"><g><path class="d" d="M138.67,89.6c-.82,1.01-2.03,1.39-3.23,1.65-.85,.13-1.71,.22-2.69,.35,.22,.25,.38,.41,.54,.6,1.17,1.3,1.08,2.75-.44,3.51-1.39,.7-2.91,1.27-4.4,1.55-8.29,1.46-16.36,.6-24.08-2.78-.85-.35-1.68-.76-2.15-1.68l-3.13,.03c.76,1.17,1.46,2.37,2.18,3.54,.1,.13,.13,.28,.16,.44,.38,1.11,.63,2.22-.25,3.2-.92,1.08-2.15,1.14-3.42,.89-2.28-.51-4.18-1.77-5.95-3.2-.28-.19-.51-.41-.7-.54-1.42,.95-2.78,1.96-4.21,2.78-2.12,1.27-4.46,2.03-6.93,2.22-.73,.06-1.52,0-2.22-.22-1.36-.44-1.96-1.49-1.52-2.85,.32-.89,.92-1.71,1.49-2.5,.25-.41,.7-.7,1.04-1.01,0-.06-.03-.13-.06-.19-1.04,0-2.06,.03-3.07,0-.41-.03-.85-.09-1.27-.25-1.08-.35-1.65-1.2-1.39-2.06l-2.82,.03c.38,1.14-.13,2.28-1.33,2.69-1.27,.38-2.63,.38-3.92,.54-.32,.03-.6-.03-1.08-.06,.19,.38,.32,.6,.41,.89,.38,1.04,.89,2.06,1.04,3.13,.28,1.55-.73,2.69-2.31,2.85-2.82,.32-5.35-.6-7.56-2.28-1.23-.92-2.31-2.09-3.45-3.16-.16-.16-.32-.35-.51-.57-.7,.82-1.33,1.61-2.03,2.31-1.27,1.27-2.69,2.28-4.46,2.75-2.03,.54-3.45-.41-3.77-2.47-.35-2.18,.41-4.11,1.46-5.98,.06-.13,.13-.25,.22-.35l-3.35,.03c-.28,.25-.54,.57-.85,.66-1.9,.73-3.77,1.52-5.7,1.99-5.28,1.33-10.66,2.18-16.14,1.8-1.87-.13-3.77-.63-5.63-1.01-.38-.1-.76-.35-1.11-.6-1.39-.95-1.52-2.47-.41-3.7,.25-.28,.51-.54,.89-.89-.44,0-.73-.03-1.01,0-2.09,.09-4.21,.19-6.23-.41l-.38-.1c-2.5-.92-2.88-2.91-.89-4.68,1.61-1.49,3.67-2.06,5.73-2.6,2.34-.6,4.75-.85,7.18-.85,.22,0,.44-.03,.82-.06-.66-.73-1.23-1.36-1.77-1.99-3.48-4.34-5.47-9.24-5.41-14.84,.06-4.15,1.17-8.01,4.11-11.08,1.01-1.08,2.31-1.84,3.54-2.66,.38-.25,.66-.44,.76-.92,1.2-4.75,3.2-9.15,6.11-13.07,2.12-2.88,4.59-5.38,7.25-7.69,.44-.38,.82-.85,1.04-1.36,1.46-3.35,3.29-6.49,5.76-9.21,.38-.41,.22-.73,.03-1.14-2.06-4.65-2.34-9.27,.66-13.61,3.16-4.56,9.49-7.28,16.14-3.92,1.58,.79,2.91,1.96,4.4,2.94,.28,.19,.73,.41,1.04,.32,2.85-.7,5.76-1.01,8.7-1.11,4.87-.19,9.72,.06,14.56,.95,.51,.1,.82-.03,1.17-.41,3.92-4.11,9.21-5.06,14.43-2.91,5.13,2.12,7.44,7.06,7.12,12.28-.1,1.96-.51,3.89-1.49,5.63-.09,.19-.03,.57,.1,.73,2.22,2.63,3.86,5.6,5.03,8.83,.06,.19,.22,.38,.38,.51,4.21,3.2,7.31,7.31,9.97,11.8,1.96,3.29,3.45,6.77,4.37,10.51,.06,.22,.28,.51,.51,.54,4.43,1.2,6.84,4.37,8.1,8.51,1.46,4.78,.57,9.4-1.17,13.92-1.04,2.78-2.63,5.22-4.56,7.47-.13,.16-.25,.28-.38,.47-.03,.03,0,.1-.03,.25,.32,.03,.6,.06,.92,.06,3.29,.28,6.52,.79,9.56,2.18,.6,.28,1.17,.66,1.68,1.11,1.14,.98,1.2,2.34,.25,3.51Z"/><g><path class="e" d="M109.26,31.7c.47,3.35,1.29,6.45,.13,9.58-.15-1.32-.27-2.64-.46-3.95-.89-6.28-3.17-11.97-7.27-16.87-.48-.57-.58-1.02-.1-1.66,.91-1.23,1.24-2.7,1.41-4.19,.39-3.38-.1-6.57-2.42-9.23-4.23-4.87-12.25-4.8-16.6,.14-.53,.6-1,.79-1.82,.64-6.78-1.24-13.59-1.49-20.42-.47-1.05,.15-2.09,.39-3.1,.69-.68,.21-1.12,.04-1.62-.43-2.09-1.93-4.47-3.37-7.27-4.02-6.07-1.4-13.12,3.15-13.19,10.27-.02,2.49,.42,4.87,1.74,7.03,.33,.54,.14,.92-.22,1.35-3.48,4.11-6.11,8.71-7.71,13.86-.58,1.87-.91,3.82-1.39,5.73-.13,.54-.38,1.05-.58,1.57l-.33-.04c-.03-.37-.12-.75-.07-1.1,.34-2.24,.72-4.48,1.09-6.72,.02-.12,.05-.24,.11-.52-.26,.19-.42,.27-.54,.39-8.48,8.13-12.43,18.13-11.95,29.81,.29,7.18,3.27,13.27,8.53,18.16,1.33,1.23,3.03,2.06,4.56,3.08,.2,.13,.42,.24,.63,.35l-.06,.2c-.39-.09-.78-.15-1.16-.28-2.76-.91-4.98-2.66-6.94-4.72-5.35-5.63-7.45-12.46-7.21-20.09,.05-1.69,.29-3.37,.45-5.05,.03-.32,.07-.63,.11-.95l-.19-.14c-.57,.46-1.18,.89-1.71,1.4-2.9,2.86-4.08,6.44-4.17,10.41-.14,6.76,2.66,12.27,7.45,16.85,4.06,3.88,8.99,5.98,14.5,6.79,.35,.05,.7,.12,1.04,.19,.07,.01,.14,.05,.43,.17-.49,.09-.77,.19-1.07,.2-2.73,.14-5.3-.59-7.84-1.47-2.43-.84-4.62-2.12-6.69-3.65-.34-.25-.82-.42-1.24-.44-3.51-.12-6.98,.19-10.31,1.32-1.24,.42-2.42,1.13-3.5,1.88-.95,.67-.76,1.6,.36,1.98,.92,.31,1.92,.58,2.88,.56,3.28-.08,6.55-.29,9.82-.46,1.14-.06,2.27-.16,3.41-.25l.03,.26c-.96,.24-1.92,.48-2.88,.71-1.73,.42-3.4,.98-4.88,1.99-.6,.41-1.31,.84-1.18,1.71,.12,.82,.88,1.13,1.55,1.27,1.82,.36,3.66,.77,5.51,.88,5.82,.33,11.52-.6,17.16-2,1.51-.38,3.01-.79,4.51-1.19l.13,.2c-.29,.23-.55,.54-.88,.66-1.89,.7-3.75,1.51-5.7,1.99-5.28,1.32-10.65,2.17-16.12,1.79-1.89-.13-3.77-.63-5.64-1.01-.4-.08-.78-.35-1.13-.59-1.36-.95-1.52-2.48-.4-3.71,.25-.27,.52-.52,.88-.89-.44,0-.73-.01-1.02,0-2.1,.1-4.19,.2-6.24-.4-.12-.04-.24-.06-.36-.11-2.49-.93-2.87-2.91-.9-4.69,1.64-1.47,3.68-2.05,5.74-2.58,2.36-.61,4.76-.86,7.2-.88,.22,0,.44-.03,.8-.06-.64-.73-1.22-1.34-1.75-2-3.49-4.33-5.5-9.22-5.42-14.83,.06-4.16,1.16-8.01,4.1-11.09,1.01-1.05,2.32-1.83,3.55-2.65,.38-.25,.66-.45,.77-.91,1.18-4.76,3.19-9.13,6.1-13.08,2.11-2.86,4.6-5.36,7.26-7.69,.42-.37,.8-.85,1.02-1.36,1.47-3.35,3.31-6.47,5.77-9.19,.39-.43,.21-.73,.03-1.14-2.04-4.65-2.34-9.28,.67-13.62,3.15-4.55,9.5-7.27,16.15-3.91,1.56,.79,2.91,1.97,4.38,2.94,.3,.2,.74,.41,1.05,.33,2.86-.72,5.76-1.02,8.69-1.13,4.88-.18,9.74,.07,14.56,.96,.51,.09,.83-.03,1.19-.4,3.91-4.12,9.2-5.08,14.42-2.92,5.15,2.13,7.43,7.05,7.14,12.26-.11,1.99-.53,3.89-1.5,5.66-.1,.17-.04,.55,.1,.71,2.23,2.63,3.86,5.6,5.03,8.83,.07,.2,.23,.4,.4,.52,4.2,3.18,7.3,7.29,9.96,11.77,1.95,3.3,3.45,6.79,4.37,10.52,.05,.22,.29,.5,.5,.55,4.44,1.2,6.85,4.36,8.11,8.52,1.44,4.76,.55,9.39-1.17,13.92-1.05,2.76-2.62,5.22-4.56,7.46-.13,.15-.26,.31-.38,.47-.03,.03-.02,.1-.04,.26,.31,.03,.62,.07,.93,.09,3.29,.26,6.52,.76,9.54,2.17,.61,.28,1.19,.67,1.7,1.11,1.12,.98,1.19,2.35,.24,3.51-.84,1.02-2.01,1.4-3.24,1.64-.83,.16-1.68,.23-2.67,.36,.22,.24,.38,.42,.53,.59,1.17,1.3,1.08,2.75-.46,3.54-1.37,.7-2.89,1.26-4.4,1.53-8.29,1.47-16.34,.6-24.08-2.77-.84-.36-1.67-.76-2.14-1.67,1.48,.46,2.96,.94,4.45,1.39,7.23,2.17,14.57,2.67,22.01,1.38,1.13-.2,2.23-.64,3.29-1.08,.74-.31,.84-.85,.2-1.34-.68-.53-1.48-1.01-2.3-1.21-1.49-.35-3.03-.47-4.55-.71-.52-.08-1.04-.21-1.56-.32v-.3c.44-.07,.87-.2,1.3-.21,2.55-.07,5.1-.08,7.64-.19,1-.04,2-.26,2.99-.45,.41-.08,.82-.27,1.19-.47,1.28-.72,1.34-1.68,.13-2.48-1.5-1-3.21-1.5-4.95-1.78-2.21-.36-4.45-.53-6.68-.79-.61-.07-1.09,.13-1.59,.51-4.8,3.7-10.22,5.74-16.31,5.85-.59,.01-1.19-.09-1.79-.13l-.02-.24c.62-.08,1.24-.16,1.85-.25,5.74-.79,11-2.78,15.5-6.5,4.22-3.5,6.72-8.06,7.9-13.36,.66-2.97,.86-5.95,0-8.91-.86-2.97-2.47-5.4-5.21-6.97-.38-.22-.81-.36-1.38-.6,.07,.57,.1,.95,.16,1.34,.95,5.84,1.06,11.66-.54,17.41-1,3.59-2.7,6.79-5.39,9.42-1.08,1.06-2.35,1.82-3.77,2.32-.27,.1-.57,.14-.85,.21l-.13-.19c.13-.07,.26-.14,.39-.21,4.49-2.62,6.94-6.7,8.28-11.56,1.47-5.33,1.4-10.73,.6-16.15-1.38-9.36-5.78-17.16-12.31-23.87-.17-.17-.36-.32-.72-.64Z"/><path class="e" d="M54.2,63.13c.11,.84,.26,1.68,.31,2.52,.22,3.91,.6,7.8,1.53,11.61,.75,3.07,1.75,6.05,3.17,8.89,.34,.67,.78,1.02,1.49,1.22,2.64,.76,5.13,1.84,7.22,3.68,.47,.41,.88,.91,1.2,1.45,.79,1.31,.36,2.84-1.08,3.29-1.25,.39-2.61,.39-3.93,.54-.29,.03-.59-.03-1.06-.06,.18,.37,.32,.62,.42,.88,.37,1.04,.87,2.06,1.05,3.13,.26,1.55-.74,2.7-2.31,2.87-2.84,.31-5.35-.63-7.57-2.28-1.25-.92-2.3-2.1-3.44-3.17-.18-.17-.33-.36-.52-.56-.7,.8-1.33,1.58-2.03,2.29-1.26,1.26-2.69,2.29-4.45,2.75-2.03,.53-3.45-.39-3.77-2.45-.35-2.2,.43-4.12,1.45-5.98,.35-.64,.77-1.24,1.13-1.82-.97-1.11-1.99-2.13-2.84-3.27-2.62-3.5-4.1-7.51-4.88-11.78-.21-1.16-.58-2.08-1.44-2.99-1.95-2.08-3.06-4.66-3.58-7.47-.05-.28,0-.57,.07-.89,1.38,2.41,2.18,5.14,4.32,7.39-.14-3.88-.29-7.57,1.66-10.89l.22,.02c-.03,.28-.06,.55-.1,.83-1.18,8.07-.19,15.79,3.73,23.03,1.03,1.9,2.39,3.56,4,5.01,.77,.69,.77,.85,.14,1.69-1.14,1.5-2.09,3.11-2.44,4.98-.12,.66-.14,1.36-.04,2.02,.16,1.12,.82,1.62,1.87,1.22,1.14-.43,2.31-.97,3.21-1.76,1.12-.98,2-2.24,2.91-3.44,.56-.75,.91-.83,1.51-.09,1.72,2.15,3.69,4.02,6.22,5.18,1.37,.63,2.81,.99,4.34,.82,1-.11,1.41-.62,1.05-1.55-.52-1.35-1.21-2.65-1.87-3.94-.48-.94-1.06-1.83-1.57-2.76-.13-.23-.18-.5-.27-.75l.21-.2c.53,.41,1.06,.81,1.57,1.23,.48,.38,.89,1.04,1.41,1.13,1.68,.3,3.41,.53,5.07-.17,.65-.27,.85-.8,.41-1.34-.56-.7-1.2-1.37-1.93-1.88-1.93-1.37-4.14-2.18-6.4-2.85-.43-.13-.91-.47-1.14-.85-1.98-3.24-3.17-6.8-3.98-10.49-.94-4.29-1.28-8.63-.76-13.01,.04-.33,.15-.66,.23-.99h.31Z"/><path class="e" d="M82.69,94.01c-.5,.32-1,.65-1.51,.94-1.34,.78-2.62,1.63-3.54,2.91-.48,.67-.96,1.46-.54,2.24,.41,.76,1.34,.62,2.08,.55,3.9-.38,7.28-1.94,10.15-4.6,.83-.78,.85-.8,1.72-.04,1.59,1.38,3.24,2.67,5.29,3.29,.54,.17,1.14,.23,1.71,.22,1.33-.03,1.82-.73,1.44-2-.5-1.7-1.52-3.12-2.59-4.5-1.01-1.29-1.14-1.09,.03-2.55,3.46-4.33,6.11-9.08,7.11-14.61,.51-2.85,.43-5.73,.29-8.61-.05-1.06-.06-2.12-.06-3.18,0-.28,.1-.55,.28-.83,1.02,2.35,1.07,4.85,1.31,7.36,1.22-1.62,1.96-3.45,2.66-5.32l.24,.05c-.05,.64-.01,1.3-.18,1.91-.55,2.03-1.23,4.01-2.68,5.62-.14,.15-.22,.4-.23,.61-.33,5.99-2.8,11.14-6.2,15.93-.47,.66-.97,1.29-1.5,1.9-.3,.35-.28,.58-.02,.97,.88,1.34,1.7,2.73,2.54,4.11,.08,.13,.12,.28,.16,.42,.36,1.11,.61,2.23-.26,3.22-.93,1.05-2.16,1.13-3.42,.87-2.28-.48-4.16-1.77-5.96-3.18-.26-.2-.51-.41-.69-.55-1.43,.96-2.77,1.96-4.19,2.8-2.13,1.26-4.46,2.02-6.94,2.22-.74,.06-1.53-.03-2.23-.24-1.36-.42-1.96-1.48-1.5-2.84,.31-.9,.91-1.71,1.46-2.51,.27-.4,.71-.68,1.08-1.02l-.09-.18c-1.02,0-2.04,.02-3.05-.01-.42-.01-.85-.11-1.26-.24-1.47-.49-1.95-1.8-.91-2.96,.79-.88,1.78-1.66,2.84-2.2,1.7-.86,3.51-1.51,5.3-2.19,.55-.21,.95-.47,1.21-1.02,1.62-3.4,2.61-7,3.24-10.69,.66-3.85,1.14-7.73,1.71-11.6,.03-.23,.11-.46,.16-.69h.3c.08,.71,.28,1.44,.23,2.15-.19,2.92-.35,5.85-.71,8.75-.46,3.71-1.29,7.35-2.79,10.81-.08,.19-.17,.37-.24,.56-.65,1.68-1.65,2.82-3.56,3.3-1.68,.42-3.26,1.33-4.84,2.11-.57,.28-1.08,.75-1.53,1.22-.64,.67-.52,1.12,.38,1.2,1.45,.13,2.91,.13,4.37,.09,1.01-.03,2-.22,3.01-.32,.28-.03,.57,.05,.85,.08l.07,.27Z"/><path class="e" d="M94.04,30.48c-2.62-.07-4.97-1.04-7.26-2.18-2.26-1.12-4.46-2.35-6.73-3.46-.87-.43-1.83-.71-2.77-.98-1.49-.43-2.96-.32-4.35,.37-1.92,.97-3.78,1-5.72-.03-1.41-.75-2.94-.59-4.43-.16-2.79,.8-5.27,2.27-7.77,3.69-3.01,1.71-6.15,3.01-9.69,2.63-1.18-.13-2.33-.61-3.46-1-.57-.2-.73-.71-.44-1.24,.28-.51,.76-.56,1.24-.27,2.71,1.66,5.54,1.42,8.29,.28,2.07-.85,4-2.02,5.99-3.07,2.14-1.13,4.28-2.27,6.71-2.7,1.65-.29,3.21-.07,4.71,.68,1,.5,2.07,.68,3.06,.15,3.38-1.79,6.6-1.07,9.78,.52,2.59,1.3,5.14,2.69,7.75,3.96,1.64,.79,3.38,1.33,5.25,1.28,1.19-.03,2.23-.39,3.06-1.26,.41-.42,.86-.55,1.33-.15,.42,.36,.35,.9-.16,1.38-1.23,1.16-2.72,1.59-4.38,1.55Z"/><path class="e" d="M91.76,21.73c-4.9,.05-8.77-3.55-8.79-8.2-.02-4.66,3.82-8.53,8.51-8.58,4.93-.05,8.63,3.35,8.69,7.97,.06,5-3.52,8.76-8.41,8.81Zm-.1-1.49c4.05,0,7.01-3.01,7.02-7.15,0-3.82-2.97-6.62-7.05-6.64-3.93-.02-7.17,3.2-7.15,7.11,.02,3.72,3.2,6.67,7.19,6.68Z"/><path class="e" d="M39.68,12.99c-.07-4.56,3.5-7.97,8.42-8.04,4.77-.07,8.68,3.67,8.77,8.37,.09,4.6-3.7,8.22-8.68,8.3-4.96,.08-8.42-3.44-8.5-8.63Zm9.11-6.55c-2.4,.04-4.1,.5-5.48,1.71-2.28,2-2.56,4.55-1.75,7.27,.78,2.63,2.58,4.23,5.34,4.61,3.33,.45,6.5-1.08,7.82-3.73,2.22-4.47-1.37-9.92-5.92-9.87Z"/><path class="e" d="M82.09,44.05c-.23,.75-.73,1.32-1.35,1.79-2.53,1.91-5.43,2.85-8.55,3.12-4.66,.41-9.1-.33-13.19-2.73-1.09-.64-2.06-1.42-2.75-2.48l.14-.23c.45,.21,.93,.38,1.34,.65,1.77,1.15,3.63,2.09,5.67,2.63,5.16,1.38,10.26,1.49,15.23-.79,.77-.35,1.47-.87,2.19-1.32,.38-.24,.73-.52,1.09-.78l.18,.15Z"/><path class="e" d="M68.12,15.63c-.42,.72-.76,1.44-1.24,2.05-.3,.38-.84,.45-1.29,.09-.41-.33-.52-.78-.26-1.21,.36-.59,.77-1.17,1.26-1.65,.18-.18,.67-.17,.96-.07,.22,.08,.33,.43,.57,.78Z"/><path class="e" d="M71.92,15.74c.24-.34,.36-.71,.6-.81,.24-.1,.72-.04,.88,.14,.43,.48,.79,1.03,1.08,1.61,.21,.43,.1,.9-.38,1.17-.5,.28-1.01,.16-1.29-.26-.37-.55-.58-1.19-.89-1.84Z"/><path class="e" d="M90.82,10.66c1.16,.21,2.55,.43,3.93,.72,.43,.09,.85,.33,1.21,.59,.89,.65,.93,1.7,.06,2.37-.47,.36-1.04,.65-1.61,.79-2.08,.52-4.11,.28-6.06-.59-.14-.06-.27-.14-.39-.23-.67-.46-1.26-1-1.07-1.91,.19-.91,.89-1.32,1.73-1.47,.64-.12,1.3-.16,2.21-.26Z"/><path class="e" d="M48.65,10.72c1.16,.14,2.13,.16,3.04,.4,1.48,.4,1.78,1.84,.6,2.82-1.62,1.34-3.58,1.54-5.58,1.39-.79-.06-1.58-.32-2.31-.62-.7-.29-1.22-.84-1.18-1.69,.03-.84,.63-1.29,1.33-1.46,1.41-.35,2.85-.59,4.1-.84Z"/></g></g></g></g></svg>